<?xml version="1.0" encoding="UTF-8" standalone="no"?>
<!DOCTYPE svg PUBLIC "-//W3C//DTD SVG 1.0//EN" "http://www.w3.org/TR/2001/PR-SVG-20010719/DTD/svg10.dtd">
<svg width="40cm" height="40cm" viewBox="76 106 798 784" xmlns="http://www.w3.org/2000/svg" xmlns:xlink="http://www.w3.org/1999/xlink">
  <g>
    <rect style="fill: #d8e5e5" x="78" y="107" width="795" height="781"/>
    <rect style="fill: none; fill-opacity:0; stroke-width: 2; stroke: #000000" x="78" y="107" width="795" height="781"/>
    <text font-size="12.8" style="fill: #000000;text-anchor:middle;font-family:sans-serif;font-style:normal;font-weight:normal" x="475.5" y="501.4">
      <tspan x="475.5" y="501.4"></tspan>
    </text>
  </g>
  <g>
    <rect style="fill: #e5e7d5" x="193.75" y="151" width="136.25" height="70"/>
    <path style="fill: #e5e7d5" d="M 193.75,151 A 4,4 0 0 0 189.75,155 L 193.75,155 z"/>
    <path style="fill: #e5e7d5" d="M 334,155 A 4,4 0 0 0 330,151 L 330,155 z"/>
    <rect style="fill: #e5e7d5" x="189.75" y="155" width="144.25" height="62"/>
    <path style="fill: #e5e7d5" d="M 189.75,217 A 4,4 0 0 0 193.75,221 L 193.75,217 z"/>
    <path style="fill: #e5e7d5" d="M 330,221 A 4,4 0 0 0 334,217 L 330,217 z"/>
    <line style="fill: none; fill-opacity:0; stroke-width: 2; stroke: #714b1d" x1="193.75" y1="151" x2="330" y2="151"/>
    <line style="fill: none; fill-opacity:0; stroke-width: 2; stroke: #714b1d" x1="193.75" y1="221" x2="330" y2="221"/>
    <path style="fill: none; fill-opacity:0; stroke-width: 2; stroke: #714b1d" d="M 193.75,151 A 4,4 0 0 0 189.75,155"/>
    <path style="fill: none; fill-opacity:0; stroke-width: 2; stroke: #714b1d" d="M 334,155 A 4,4 0 0 0 330,151"/>
    <line style="fill: none; fill-opacity:0; stroke-width: 2; stroke: #714b1d" x1="189.75" y1="155" x2="189.75" y2="217"/>
    <line style="fill: none; fill-opacity:0; stroke-width: 2; stroke: #714b1d" x1="334" y1="155" x2="334" y2="217"/>
    <path style="fill: none; fill-opacity:0; stroke-width: 2; stroke: #714b1d" d="M 189.75,217 A 4,4 0 0 0 193.75,221"/>
    <path style="fill: none; fill-opacity:0; stroke-width: 2; stroke: #714b1d" d="M 330,221 A 4,4 0 0 0 334,217"/>
    <text font-size="12.8" style="fill: #714b1d;text-anchor:middle;font-family:Arial;font-style:normal;font-weight:700" x="261.875" y="173.6">
      <tspan x="261.875" y="173.6">Field Sampling</tspan>
      <tspan x="261.875" y="189.6">and Data</tspan>
      <tspan x="261.875" y="205.6">Collection</tspan>
    </text>
  </g>
  <text font-size="12.8" style="fill: #000000;text-anchor:start;font-family:sans-serif;font-style:normal;font-weight:normal" x="261.875" y="186">
    <tspan x="261.875" y="186"></tspan>
  </text>
  <g>
    <rect style="fill: #e5e7d5" x="240.4" y="275" width="114.6" height="86"/>
    <path style="fill: #e5e7d5" d="M 240.4,275 A 4,4 0 0 0 236.4,279 L 240.4,279 z"/>
    <path style="fill: #e5e7d5" d="M 359,279 A 4,4 0 0 0 355,275 L 355,279 z"/>
    <rect style="fill: #e5e7d5" x="236.4" y="279" width="122.6" height="78"/>
    <path style="fill: #e5e7d5" d="M 236.4,357 A 4,4 0 0 0 240.4,361 L 240.4,357 z"/>
    <path style="fill: #e5e7d5" d="M 355,361 A 4,4 0 0 0 359,357 L 355,357 z"/>
    <line style="fill: none; fill-opacity:0; stroke-width: 2; stroke: #714b1d" x1="240.4" y1="275" x2="355" y2="275"/>
    <line style="fill: none; fill-opacity:0; stroke-width: 2; stroke: #714b1d" x1="240.4" y1="361" x2="355" y2="361"/>
    <path style="fill: none; fill-opacity:0; stroke-width: 2; stroke: #714b1d" d="M 240.4,275 A 4,4 0 0 0 236.4,279"/>
    <path style="fill: none; fill-opacity:0; stroke-width: 2; stroke: #714b1d" d="M 359,279 A 4,4 0 0 0 355,275"/>
    <line style="fill: none; fill-opacity:0; stroke-width: 2; stroke: #714b1d" x1="236.4" y1="279" x2="236.4" y2="357"/>
    <line style="fill: none; fill-opacity:0; stroke-width: 2; stroke: #714b1d" x1="359" y1="279" x2="359" y2="357"/>
    <path style="fill: none; fill-opacity:0; stroke-width: 2; stroke: #714b1d" d="M 236.4,357 A 4,4 0 0 0 240.4,361"/>
    <path style="fill: none; fill-opacity:0; stroke-width: 2; stroke: #714b1d" d="M 355,361 A 4,4 0 0 0 359,357"/>
    <text font-size="12.8" style="fill: #714b1d;text-anchor:middle;font-family:Arial;font-style:normal;font-weight:700" x="297.7" y="297.6">
      <tspan x="297.7" y="297.6">Laboratory</tspan>
      <tspan x="297.7" y="313.6">Analyses and</tspan>
      <tspan x="297.7" y="329.6">Data</tspan>
      <tspan x="297.7" y="345.6">Validation</tspan>
    </text>
  </g>
  <g>
    <rect style="fill: #e5e7d5" x="368.276" y="150" width="132.725" height="70"/>
    <path style="fill: #e5e7d5" d="M 368.276,150 A 4,4 0 0 0 364.276,154 L 368.276,154 z"/>
    <path style="fill: #e5e7d5" d="M 505.001,154 A 4,4 0 0 0 501.001,150 L 501.001,154 z"/>
    <rect style="fill: #e5e7d5" x="364.276" y="154" width="140.725" height="62"/>
    <path style="fill: #e5e7d5" d="M 364.276,216 A 4,4 0 0 0 368.276,220 L 368.276,216 z"/>
    <path style="fill: #e5e7d5" d="M 501.001,220 A 4,4 0 0 0 505.001,216 L 501.001,216 z"/>
    <line style="fill: none; fill-opacity:0; stroke-width: 2; stroke: #714b1d" x1="368.276" y1="150" x2="501.001" y2="150"/>
    <line style="fill: none; fill-opacity:0; stroke-width: 2; stroke: #714b1d" x1="368.276" y1="220" x2="501.001" y2="220"/>
    <path style="fill: none; fill-opacity:0; stroke-width: 2; stroke: #714b1d" d="M 368.276,150 A 4,4 0 0 0 364.276,154"/>
    <path style="fill: none; fill-opacity:0; stroke-width: 2; stroke: #714b1d" d="M 505.001,154 A 4,4 0 0 0 501.001,150"/>
    <line style="fill: none; fill-opacity:0; stroke-width: 2; stroke: #714b1d" x1="364.276" y1="154" x2="364.276" y2="216"/>
    <line style="fill: none; fill-opacity:0; stroke-width: 2; stroke: #714b1d" x1="505.001" y1="154" x2="505.001" y2="216"/>
    <path style="fill: none; fill-opacity:0; stroke-width: 2; stroke: #714b1d" d="M 364.276,216 A 4,4 0 0 0 368.276,220"/>
    <path style="fill: none; fill-opacity:0; stroke-width: 2; stroke: #714b1d" d="M 501.001,220 A 4,4 0 0 0 505.001,216"/>
    <text font-size="12.8" style="fill: #714b1d;text-anchor:middle;font-family:Arial;font-style:normal;font-weight:700" x="434.638" y="180.6">
      <tspan x="434.638" y="180.6">Historical Data</tspan>
      <tspan x="434.638" y="196.6">Acquisition</tspan>
    </text>
  </g>
  <g>
    <rect style="fill: #e5e7d5" x="690.55" y="149" width="118.9" height="70"/>
    <path style="fill: #e5e7d5" d="M 690.55,149 A 4,4 0 0 0 686.55,153 L 690.55,153 z"/>
    <path style="fill: #e5e7d5" d="M 813.45,153 A 4,4 0 0 0 809.45,149 L 809.45,153 z"/>
    <rect style="fill: #e5e7d5" x="686.55" y="153" width="126.9" height="62"/>
    <path style="fill: #e5e7d5" d="M 686.55,215 A 4,4 0 0 0 690.55,219 L 690.55,215 z"/>
    <path style="fill: #e5e7d5" d="M 809.45,219 A 4,4 0 0 0 813.45,215 L 809.45,215 z"/>
    <line style="fill: none; fill-opacity:0; stroke-width: 2; stroke: #714b1d" x1="690.55" y1="149" x2="809.45" y2="149"/>
    <line style="fill: none; fill-opacity:0; stroke-width: 2; stroke: #714b1d" x1="690.55" y1="219" x2="809.45" y2="219"/>
    <path style="fill: none; fill-opacity:0; stroke-width: 2; stroke: #714b1d" d="M 690.55,149 A 4,4 0 0 0 686.55,153"/>
    <path style="fill: none; fill-opacity:0; stroke-width: 2; stroke: #714b1d" d="M 813.45,153 A 4,4 0 0 0 809.45,149"/>
    <line style="fill: none; fill-opacity:0; stroke-width: 2; stroke: #714b1d" x1="686.55" y1="153" x2="686.55" y2="215"/>
    <line style="fill: none; fill-opacity:0; stroke-width: 2; stroke: #714b1d" x1="813.45" y1="153" x2="813.45" y2="215"/>
    <path style="fill: none; fill-opacity:0; stroke-width: 2; stroke: #714b1d" d="M 686.55,215 A 4,4 0 0 0 690.55,219"/>
    <path style="fill: none; fill-opacity:0; stroke-width: 2; stroke: #714b1d" d="M 809.45,219 A 4,4 0 0 0 813.45,215"/>
    <text font-size="12.8" style="fill: #714b1d;text-anchor:middle;font-family:Arial;font-style:normal;font-weight:700" x="750" y="179.6">
      <tspan x="750" y="179.6">Non-Structured</tspan>
      <tspan x="750" y="195.6">Data Acquisition</tspan>
    </text>
  </g>
  <g>
    <rect style="fill: #e5e7d5" x="144.375" y="414" width="637.625" height="42"/>
    <path style="fill: #e5e7d5" d="M 144.375,414 A 4,4 0 0 0 140.375,418 L 144.375,418 z"/>
    <path style="fill: #e5e7d5" d="M 786,418 A 4,4 0 0 0 782,414 L 782,418 z"/>
    <rect style="fill: #e5e7d5" x="140.375" y="418" width="645.625" height="34"/>
    <path style="fill: #e5e7d5" d="M 140.375,452 A 4,4 0 0 0 144.375,456 L 144.375,452 z"/>
    <path style="fill: #e5e7d5" d="M 782,456 A 4,4 0 0 0 786,452 L 782,452 z"/>
    <line style="fill: none; fill-opacity:0; stroke-width: 2; stroke: #714b1d" x1="144.375" y1="414" x2="782" y2="414"/>
    <line style="fill: none; fill-opacity:0; stroke-width: 2; stroke: #714b1d" x1="144.375" y1="456" x2="782" y2="456"/>
    <path style="fill: none; fill-opacity:0; stroke-width: 2; stroke: #714b1d" d="M 144.375,414 A 4,4 0 0 0 140.375,418"/>
    <path style="fill: none; fill-opacity:0; stroke-width: 2; stroke: #714b1d" d="M 786,418 A 4,4 0 0 0 782,414"/>
    <line style="fill: none; fill-opacity:0; stroke-width: 2; stroke: #714b1d" x1="140.375" y1="418" x2="140.375" y2="452"/>
    <line style="fill: none; fill-opacity:0; stroke-width: 2; stroke: #714b1d" x1="786" y1="418" x2="786" y2="452"/>
    <path style="fill: none; fill-opacity:0; stroke-width: 2; stroke: #714b1d" d="M 140.375,452 A 4,4 0 0 0 144.375,456"/>
    <path style="fill: none; fill-opacity:0; stroke-width: 2; stroke: #714b1d" d="M 782,456 A 4,4 0 0 0 786,452"/>
    <text font-size="12.8" style="fill: #714b1d;text-anchor:middle;font-family:Arial;font-style:normal;font-weight:700" x="463.188" y="438.6">
      <tspan x="463.188" y="438.6">Data Quality Assurance, Standardization, and Integration</tspan>
    </text>
  </g>
  <g>
    <line style="fill: none; fill-opacity:0; stroke-width: 3; stroke: #714b1d" x1="225.813" y1="221" x2="225.989" y2="398.146"/>
    <polygon style="fill: #714b1d" points="225.997,405.646 220.987,395.651 225.989,398.146 230.987,395.641 "/>
    <polygon style="fill: none; fill-opacity:0; stroke-width: 3; stroke: #714b1d" points="225.997,405.646 220.987,395.651 225.989,398.146 230.987,395.641 "/>
  </g>
  <g>
    <line style="fill: none; fill-opacity:0; stroke-width: 3; stroke: #714b1d" x1="297.937" y1="221" x2="297.748" y2="264.146"/>
    <polygon style="fill: #714b1d" points="297.715,271.646 292.759,261.624 297.748,264.146 302.759,261.668 "/>
    <polygon style="fill: none; fill-opacity:0; stroke-width: 3; stroke: #714b1d" points="297.715,271.646 292.759,261.624 297.748,264.146 302.759,261.668 "/>
  </g>
  <g>
    <line style="fill: none; fill-opacity:0; stroke-width: 3; stroke: #714b1d" x1="434.638" y1="220" x2="434.979" y2="397.146"/>
    <polygon style="fill: #714b1d" points="434.994,404.646 429.974,394.656 434.979,397.146 439.974,394.636 "/>
    <polygon style="fill: none; fill-opacity:0; stroke-width: 3; stroke: #714b1d" points="434.994,404.646 429.974,394.656 434.979,397.146 439.974,394.636 "/>
  </g>
  <g>
    <line style="fill: none; fill-opacity:0; stroke-width: 3; stroke: #714b1d" x1="750" y1="219" x2="750" y2="399.146"/>
    <polygon style="fill: #714b1d" points="750,406.646 745,396.646 750,399.146 755,396.646 "/>
    <polygon style="fill: none; fill-opacity:0; stroke-width: 3; stroke: #714b1d" points="750,406.646 745,396.646 750,399.146 755,396.646 "/>
  </g>
  <g>
    <rect style="fill: #e5e7d5" x="342.576" y="677" width="130.85" height="78.0002"/>
    <path style="fill: #e5e7d5" d="M 342.576,677 A 4,4 0 0 0 338.576,681 L 342.576,681 z"/>
    <path style="fill: #e5e7d5" d="M 477.426,681 A 4,4 0 0 0 473.426,677 L 473.426,681 z"/>
    <rect style="fill: #e5e7d5" x="338.576" y="681" width="138.85" height="70.0002"/>
    <path style="fill: #e5e7d5" d="M 338.576,751 A 4,4 0 0 0 342.576,755 L 342.576,751 z"/>
    <path style="fill: #e5e7d5" d="M 473.426,755 A 4,4 0 0 0 477.426,751 L 473.426,751 z"/>
    <line style="fill: none; fill-opacity:0; stroke-width: 2; stroke: #714b1d" x1="342.576" y1="677" x2="473.426" y2="677"/>
    <line style="fill: none; fill-opacity:0; stroke-width: 2; stroke: #714b1d" x1="342.576" y1="755" x2="473.426" y2="755"/>
    <path style="fill: none; fill-opacity:0; stroke-width: 2; stroke: #714b1d" d="M 342.576,677 A 4,4 0 0 0 338.576,681"/>
    <path style="fill: none; fill-opacity:0; stroke-width: 2; stroke: #714b1d" d="M 477.426,681 A 4,4 0 0 0 473.426,677"/>
    <line style="fill: none; fill-opacity:0; stroke-width: 2; stroke: #714b1d" x1="338.576" y1="681" x2="338.576" y2="751"/>
    <line style="fill: none; fill-opacity:0; stroke-width: 2; stroke: #714b1d" x1="477.426" y1="681" x2="477.426" y2="751"/>
    <path style="fill: none; fill-opacity:0; stroke-width: 2; stroke: #714b1d" d="M 338.576,751 A 4,4 0 0 0 342.576,755"/>
    <path style="fill: none; fill-opacity:0; stroke-width: 2; stroke: #714b1d" d="M 473.426,755 A 4,4 0 0 0 477.426,751"/>
    <text font-size="12.8" style="fill: #714b1d;text-anchor:middle;font-family:Arial;font-style:normal;font-weight:700" x="408.001" y="711.6">
      <tspan x="408.001" y="711.6">Data Analysis</tspan>
      <tspan x="408.001" y="727.6">and Interpretation</tspan>
    </text>
  </g>
  <g>
    <path style="fill: #779c6e" d="M 414 515.833 C 437.4,497.958 449.1,492 472.5,492 C 495.9,492 507.6,497.958 531,515.833 L 531,611.167 C 507.6,629.042 495.9,635 472.5,635 C 449.1,635 437.4,629.042 414,611.167 L 414,515.833z"/>
    <path style="fill: none; fill-opacity:0; stroke-width: 2; stroke: #000000" d="M 414 515.833 C 437.4,497.958 449.1,492 472.5,492 C 495.9,492 507.6,497.958 531,515.833 L 531,611.167 C 507.6,629.042 495.9,635 472.5,635 C 449.1,635 437.4,629.042 414,611.167 L 414,515.833"/>
    <path style="fill: none; fill-opacity:0; stroke-width: 2; stroke: #000000" d="M 414 515.833 C 437.4,533.708 449.1,539.667 472.5,539.667 C 495.9,539.667 507.6,533.708 531,515.833"/>
    <text font-size="12.8" style="fill: #ffffff;text-anchor:middle;font-family:Arial;font-style:normal;font-weight:700" x="472.5" y="555.417">
      <tspan x="472.5" y="555.417">Authoritative</tspan>
      <tspan x="472.5" y="571.417">Data Store: </tspan>
      <tspan x="472.5" y="587.417">Database</tspan>
      <tspan x="472.5" y="603.417">and GIS</tspan>
    </text>
  </g>
  <g>
    <line style="fill: none; fill-opacity:0; stroke-width: 3; stroke: #714b1d" x1="472" y1="459" x2="472.336" y2="481.147"/>
    <polygon style="fill: #714b1d" points="472.449,488.646 467.298,478.723 472.336,481.147 477.297,478.572 "/>
    <polygon style="fill: none; fill-opacity:0; stroke-width: 3; stroke: #714b1d" points="472.449,488.646 467.298,478.723 472.336,481.147 477.297,478.572 "/>
  </g>
  <g>
    <rect style="fill: #e5e7d5" x="417.574" y="803" width="109.426" height="61"/>
    <path style="fill: #e5e7d5" d="M 417.574,803 A 4,4 0 0 0 413.574,807 L 417.574,807 z"/>
    <path style="fill: #e5e7d5" d="M 531,807 A 4,4 0 0 0 527,803 L 527,807 z"/>
    <rect style="fill: #e5e7d5" x="413.574" y="807" width="117.426" height="53"/>
    <path style="fill: #e5e7d5" d="M 413.574,860 A 4,4 0 0 0 417.574,864 L 417.574,860 z"/>
    <path style="fill: #e5e7d5" d="M 527,864 A 4,4 0 0 0 531,860 L 527,860 z"/>
    <line style="fill: none; fill-opacity:0; stroke-width: 2; stroke: #714b1d" x1="417.574" y1="803" x2="527" y2="803"/>
    <line style="fill: none; fill-opacity:0; stroke-width: 2; stroke: #714b1d" x1="417.574" y1="864" x2="527" y2="864"/>
    <path style="fill: none; fill-opacity:0; stroke-width: 2; stroke: #714b1d" d="M 417.574,803 A 4,4 0 0 0 413.574,807"/>
    <path style="fill: none; fill-opacity:0; stroke-width: 2; stroke: #714b1d" d="M 531,807 A 4,4 0 0 0 527,803"/>
    <line style="fill: none; fill-opacity:0; stroke-width: 2; stroke: #714b1d" x1="413.574" y1="807" x2="413.574" y2="860"/>
    <line style="fill: none; fill-opacity:0; stroke-width: 2; stroke: #714b1d" x1="531" y1="807" x2="531" y2="860"/>
    <path style="fill: none; fill-opacity:0; stroke-width: 2; stroke: #714b1d" d="M 413.574,860 A 4,4 0 0 0 417.574,864"/>
    <path style="fill: none; fill-opacity:0; stroke-width: 2; stroke: #714b1d" d="M 527,864 A 4,4 0 0 0 531,860"/>
    <text font-size="12.8" style="fill: #714b1d;text-anchor:middle;font-family:Arial;font-style:normal;font-weight:700" x="472.287" y="837.1">
      <tspan x="472.287" y="837.1">Reporting</tspan>
    </text>
  </g>
  <g>
    <line style="fill: none; fill-opacity:0; stroke-width: 3; stroke: #714b1d" x1="443.25" y1="629.786" x2="442.837" y2="666.147"/>
    <polygon style="fill: #714b1d" points="442.752,673.646 437.866,663.59 442.837,666.147 447.865,663.704 "/>
    <polygon style="fill: none; fill-opacity:0; stroke-width: 3; stroke: #714b1d" points="442.752,673.646 437.866,663.59 442.837,666.147 447.865,663.704 "/>
  </g>
  <g>
    <line style="fill: none; fill-opacity:0; stroke-width: 3; stroke: #714b1d" x1="501.75" y1="629.786" x2="501.65" y2="792.146"/>
    <polygon style="fill: #714b1d" points="501.646,799.646 496.652,789.643 501.65,792.146 506.652,789.649 "/>
    <polygon style="fill: none; fill-opacity:0; stroke-width: 3; stroke: #714b1d" points="501.646,799.646 496.652,789.643 501.65,792.146 506.652,789.649 "/>
  </g>
  <g>
    <line style="fill: none; fill-opacity:0; stroke-width: 3; stroke: #714b1d" x1="442.714" y1="755" x2="442.881" y2="792.146"/>
    <polygon style="fill: #714b1d" points="442.915,799.646 437.87,789.669 442.881,792.146 447.87,789.623 "/>
    <polygon style="fill: none; fill-opacity:0; stroke-width: 3; stroke: #714b1d" points="442.915,799.646 437.87,789.669 442.881,792.146 447.87,789.623 "/>
  </g>
  <g>
    <line style="fill: none; fill-opacity:0; stroke-width: 3; stroke: #714b1d" x1="297.7" y1="361" x2="297.931" y2="397.147"/>
    <polygon style="fill: #714b1d" points="297.979,404.646 292.915,394.678 297.931,397.147 302.915,394.615 "/>
    <polygon style="fill: none; fill-opacity:0; stroke-width: 3; stroke: #714b1d" points="297.979,404.646 292.915,394.678 297.931,397.147 302.915,394.615 "/>
  </g>
  <g>
    <rect style="fill: #e5e7d5" x="540.85" y="149" width="112.15" height="70"/>
    <path style="fill: #e5e7d5" d="M 540.85,149 A 4,4 0 0 0 536.85,153 L 540.85,153 z"/>
    <path style="fill: #e5e7d5" d="M 657,153 A 4,4 0 0 0 653,149 L 653,153 z"/>
    <rect style="fill: #e5e7d5" x="536.85" y="153" width="120.15" height="62"/>
    <path style="fill: #e5e7d5" d="M 536.85,215 A 4,4 0 0 0 540.85,219 L 540.85,215 z"/>
    <path style="fill: #e5e7d5" d="M 653,219 A 4,4 0 0 0 657,215 L 653,215 z"/>
    <line style="fill: none; fill-opacity:0; stroke-width: 2; stroke: #714b1d" x1="540.85" y1="149" x2="653" y2="149"/>
    <line style="fill: none; fill-opacity:0; stroke-width: 2; stroke: #714b1d" x1="540.85" y1="219" x2="653" y2="219"/>
    <path style="fill: none; fill-opacity:0; stroke-width: 2; stroke: #714b1d" d="M 540.85,149 A 4,4 0 0 0 536.85,153"/>
    <path style="fill: none; fill-opacity:0; stroke-width: 2; stroke: #714b1d" d="M 657,153 A 4,4 0 0 0 653,149"/>
    <line style="fill: none; fill-opacity:0; stroke-width: 2; stroke: #714b1d" x1="536.85" y1="153" x2="536.85" y2="215"/>
    <line style="fill: none; fill-opacity:0; stroke-width: 2; stroke: #714b1d" x1="657" y1="153" x2="657" y2="215"/>
    <path style="fill: none; fill-opacity:0; stroke-width: 2; stroke: #714b1d" d="M 536.85,215 A 4,4 0 0 0 540.85,219"/>
    <path style="fill: none; fill-opacity:0; stroke-width: 2; stroke: #714b1d" d="M 653,219 A 4,4 0 0 0 657,215"/>
    <text font-size="12.8" style="fill: #714b1d;text-anchor:middle;font-family:Arial;font-style:normal;font-weight:700" x="596.925" y="171.6">
      <tspan x="596.925" y="171.6">Spatial</tspan>
      <tspan x="596.925" y="187.6">Data</tspan>
      <tspan x="596.925" y="203.6">Acquisition</tspan>
    </text>
  </g>
  <g>
    <line style="fill: none; fill-opacity:0; stroke-width: 3; stroke: #714b1d" x1="596.925" y1="219" x2="596.996" y2="400.146"/>
    <polygon style="fill: #714b1d" points="596.999,407.646 591.995,397.648 596.996,400.146 601.995,397.644 "/>
    <polygon style="fill: none; fill-opacity:0; stroke-width: 3; stroke: #714b1d" points="596.999,407.646 591.995,397.648 596.996,400.146 601.995,397.644 "/>
  </g>
  <text font-size="12.8" style="fill: #000000;text-anchor:start;font-family:sans-serif;font-style:normal;font-weight:normal" x="475.5" y="497.5">
    <tspan x="475.5" y="497.5"></tspan>
  </text>
  <text font-size="13.6483" style="fill: #000000;text-anchor:start;font-family:sans-serif;font-style:normal;font-weight:700" x="95" y="129">
    <tspan x="95" y="129">Plan</tspan>
  </text>
</svg>
