<?xml version="1.0" encoding="UTF-8" standalone="no"?>
<!DOCTYPE svg PUBLIC "-//W3C//DTD SVG 1.0//EN" "http://www.w3.org/TR/2001/PR-SVG-20010719/DTD/svg10.dtd">
<svg width="23cm" height="14cm" viewBox="23 8 442 276" xmlns="http://www.w3.org/2000/svg" xmlns:xlink="http://www.w3.org/1999/xlink">
  <g>
    <rect style="fill: #ffffff" x="24" y="9.60503" width="439.999" height="273.999"/>
    <rect style="fill: none; fill-opacity:0; stroke-width: 2; stroke: #000000" x="24" y="9.60503" width="439.999" height="273.999"/>
    <text font-size="12.7998" style="fill: #000000;text-anchor:middle;font-family:sans-serif;font-style:normal;font-weight:normal" x="244" y="150.505">
      <tspan x="244" y="150.505"></tspan>
    </text>
  </g>
  <text font-size="12.7998" style="fill: #000000;text-anchor:start;font-family:sans-serif;font-style:normal;font-weight:normal" x="63.6" y="52.38">
    <tspan x="63.6" y="52.38">Brooke Arena</tspan>
  </text>
  <text font-size="12.7998" style="fill: #000000;text-anchor:start;font-family:sans-serif;font-style:normal;font-weight:normal" x="75.1" y="76.3175">
    <tspan x="75.1" y="76.3175">Eric Bushèe</tspan>
  </text>
  <text font-size="12.7998" style="fill: #000000;text-anchor:start;font-family:sans-serif;font-style:normal;font-weight:normal" x="42" y="100.255">
    <tspan x="42" y="100.255">Melanie Edwards</tspan>
  </text>
  <text font-size="12.7998" style="fill: #000000;text-anchor:start;font-family:sans-serif;font-style:normal;font-weight:normal" x="56.45" y="124.192">
    <tspan x="56.45" y="124.192">Negin Ghoseiri</tspan>
  </text>
  <text font-size="12.7998" style="fill: #000000;text-anchor:start;font-family:sans-serif;font-style:normal;font-weight:normal" x="74" y="148.13">
    <tspan x="74" y="148.13">Caleb Grant</tspan>
  </text>
  <text font-size="12.7998" style="fill: #000000;text-anchor:start;font-family:sans-serif;font-style:normal;font-weight:normal" x="86.2" y="172.067">
    <tspan x="86.2" y="172.067">Jim Knape</tspan>
  </text>
  <text font-size="12.7998" style="fill: #000000;text-anchor:start;font-family:sans-serif;font-style:normal;font-weight:normal" x="61.75" y="196.005">
    <tspan x="61.75" y="196.005">Dreas Nielsen</tspan>
  </text>
  <text font-size="12.7998" style="fill: #000000;text-anchor:start;font-family:sans-serif;font-style:normal;font-weight:normal" x="76.75" y="219.942">
    <tspan x="76.75" y="219.942">Tom Schulz</tspan>
  </text>
  <text font-size="12.7998" style="fill: #000000;text-anchor:start;font-family:sans-serif;font-style:normal;font-weight:normal" x="52" y="243.88">
    <tspan x="52" y="243.88">Jonathan Zadra</tspan>
  </text>
  <text font-size="12.7998" style="fill: #000000;text-anchor:start;font-family:sans-serif;font-style:normal;font-weight:normal" x="284" y="52.38">
    <tspan x="284" y="52.38">Database management</tspan>
  </text>
  <text font-size="12.7998" style="fill: #000000;text-anchor:start;font-family:sans-serif;font-style:normal;font-weight:normal" x="284" y="148.13">
    <tspan x="284" y="148.13">GIS</tspan>
  </text>
  <text font-size="12.7998" style="fill: #000000;text-anchor:start;font-family:sans-serif;font-style:normal;font-weight:normal" x="284" y="100.255">
    <tspan x="284" y="100.255">Statistics</tspan>
  </text>
  <text font-size="12.7998" style="fill: #000000;text-anchor:start;font-family:sans-serif;font-style:normal;font-weight:normal" x="284" y="196.005">
    <tspan x="284" y="196.005">Programming</tspan>
  </text>
  <text font-size="12.7998" style="fill: #000000;text-anchor:start;font-family:sans-serif;font-style:normal;font-weight:normal" x="284" y="243.88">
    <tspan x="284" y="243.88">Website development</tspan>
  </text>
  <g>
    <ellipse style="fill: #000000" cx="171.5" cy="47.93" rx="4.75" ry="4.75"/>
    <ellipse style="fill: none; fill-opacity:0; stroke-width: 2; stroke: #000000" cx="171.5" cy="47.93" rx="4.75" ry="4.75"/>
    <ellipse style="fill: none; fill-opacity:0; stroke-width: 2; stroke: #000000" cx="171.5" cy="47.93" rx="4.75" ry="4.75"/>
  </g>
  <g>
    <ellipse style="fill: #000000" cx="171.5" cy="71.8675" rx="4.75" ry="4.75"/>
    <ellipse style="fill: none; fill-opacity:0; stroke-width: 2; stroke: #000000" cx="171.5" cy="71.8675" rx="4.75" ry="4.75"/>
    <ellipse style="fill: none; fill-opacity:0; stroke-width: 2; stroke: #000000" cx="171.5" cy="71.8675" rx="4.75" ry="4.75"/>
  </g>
  <g>
    <ellipse style="fill: #000000" cx="171.5" cy="95.805" rx="4.75" ry="4.75"/>
    <ellipse style="fill: none; fill-opacity:0; stroke-width: 2; stroke: #000000" cx="171.5" cy="95.805" rx="4.75" ry="4.75"/>
    <ellipse style="fill: none; fill-opacity:0; stroke-width: 2; stroke: #000000" cx="171.5" cy="95.805" rx="4.75" ry="4.75"/>
  </g>
  <g>
    <ellipse style="fill: #000000" cx="171.5" cy="119.742" rx="4.75" ry="4.75"/>
    <ellipse style="fill: none; fill-opacity:0; stroke-width: 2; stroke: #000000" cx="171.5" cy="119.742" rx="4.75" ry="4.75"/>
    <ellipse style="fill: none; fill-opacity:0; stroke-width: 2; stroke: #000000" cx="171.5" cy="119.742" rx="4.75" ry="4.75"/>
  </g>
  <g>
    <ellipse style="fill: #000000" cx="171.5" cy="143.68" rx="4.75" ry="4.75"/>
    <ellipse style="fill: none; fill-opacity:0; stroke-width: 2; stroke: #000000" cx="171.5" cy="143.68" rx="4.75" ry="4.75"/>
    <ellipse style="fill: none; fill-opacity:0; stroke-width: 2; stroke: #000000" cx="171.5" cy="143.68" rx="4.75" ry="4.75"/>
  </g>
  <g>
    <ellipse style="fill: #000000" cx="171.5" cy="167.617" rx="4.75" ry="4.75"/>
    <ellipse style="fill: none; fill-opacity:0; stroke-width: 2; stroke: #000000" cx="171.5" cy="167.617" rx="4.75" ry="4.75"/>
    <ellipse style="fill: none; fill-opacity:0; stroke-width: 2; stroke: #000000" cx="171.5" cy="167.617" rx="4.75" ry="4.75"/>
  </g>
  <g>
    <ellipse style="fill: #000000" cx="171.5" cy="191.555" rx="4.75" ry="4.75"/>
    <ellipse style="fill: none; fill-opacity:0; stroke-width: 2; stroke: #000000" cx="171.5" cy="191.555" rx="4.75" ry="4.75"/>
    <ellipse style="fill: none; fill-opacity:0; stroke-width: 2; stroke: #000000" cx="171.5" cy="191.555" rx="4.75" ry="4.75"/>
  </g>
  <g>
    <ellipse style="fill: #000000" cx="171.5" cy="215.492" rx="4.75" ry="4.75"/>
    <ellipse style="fill: none; fill-opacity:0; stroke-width: 2; stroke: #000000" cx="171.5" cy="215.492" rx="4.75" ry="4.75"/>
    <ellipse style="fill: none; fill-opacity:0; stroke-width: 2; stroke: #000000" cx="171.5" cy="215.492" rx="4.75" ry="4.75"/>
  </g>
  <g>
    <ellipse style="fill: #000000" cx="171.5" cy="239.43" rx="4.75" ry="4.75"/>
    <ellipse style="fill: none; fill-opacity:0; stroke-width: 2; stroke: #000000" cx="171.5" cy="239.43" rx="4.75" ry="4.75"/>
    <ellipse style="fill: none; fill-opacity:0; stroke-width: 2; stroke: #000000" cx="171.5" cy="239.43" rx="4.75" ry="4.75"/>
  </g>
  <g>
    <ellipse style="fill: #000000" cx="268.5" cy="47.93" rx="4.75" ry="4.75"/>
    <ellipse style="fill: none; fill-opacity:0; stroke-width: 2; stroke: #000000" cx="268.5" cy="47.93" rx="4.75" ry="4.75"/>
    <ellipse style="fill: none; fill-opacity:0; stroke-width: 2; stroke: #000000" cx="268.5" cy="47.93" rx="4.75" ry="4.75"/>
  </g>
  <g>
    <ellipse style="fill: #000000" cx="268.5" cy="95.805" rx="4.75" ry="4.75"/>
    <ellipse style="fill: none; fill-opacity:0; stroke-width: 2; stroke: #000000" cx="268.5" cy="95.805" rx="4.75" ry="4.75"/>
    <ellipse style="fill: none; fill-opacity:0; stroke-width: 2; stroke: #000000" cx="268.5" cy="95.805" rx="4.75" ry="4.75"/>
  </g>
  <g>
    <ellipse style="fill: #000000" cx="268.5" cy="143.68" rx="4.75" ry="4.75"/>
    <ellipse style="fill: none; fill-opacity:0; stroke-width: 2; stroke: #000000" cx="268.5" cy="143.68" rx="4.75" ry="4.75"/>
    <ellipse style="fill: none; fill-opacity:0; stroke-width: 2; stroke: #000000" cx="268.5" cy="143.68" rx="4.75" ry="4.75"/>
  </g>
  <g>
    <ellipse style="fill: #000000" cx="268.5" cy="191.555" rx="4.75" ry="4.75"/>
    <ellipse style="fill: none; fill-opacity:0; stroke-width: 2; stroke: #000000" cx="268.5" cy="191.555" rx="4.75" ry="4.75"/>
    <ellipse style="fill: none; fill-opacity:0; stroke-width: 2; stroke: #000000" cx="268.5" cy="191.555" rx="4.75" ry="4.75"/>
  </g>
  <g>
    <ellipse style="fill: #000000" cx="268.5" cy="239.43" rx="4.75" ry="4.75"/>
    <ellipse style="fill: none; fill-opacity:0; stroke-width: 2; stroke: #000000" cx="268.5" cy="239.43" rx="4.75" ry="4.75"/>
    <ellipse style="fill: none; fill-opacity:0; stroke-width: 2; stroke: #000000" cx="268.5" cy="239.43" rx="4.75" ry="4.75"/>
  </g>
  <line style="fill: none; fill-opacity:0; stroke-width: 2; stroke: #000000" x1="177.243" y1="47.93" x2="262.757" y2="47.93"/>
  <line style="fill: none; fill-opacity:0; stroke-width: 2; stroke: #000000" x1="174.626" y1="52.5585" x2="265.374" y2="186.926"/>
  <line style="fill: none; fill-opacity:0; stroke-width: 2; stroke: #000000" x1="176.124" y1="75.2907" x2="263.876" y2="140.257"/>
  <line style="fill: none; fill-opacity:0; stroke-width: 2; stroke: #000000" x1="174.365" y1="76.8175" x2="265.634" y2="234.48"/>
  <line style="fill: none; fill-opacity:0; stroke-width: 2; stroke: #000000" x1="177.243" y1="95.805" x2="262.757" y2="95.805"/>
  <line style="fill: none; fill-opacity:0; stroke-width: 2; stroke: #000000" x1="176.124" y1="116.319" x2="263.876" y2="51.3532"/>
  <line style="fill: none; fill-opacity:0; stroke-width: 2; stroke: #000000" x1="177.041" y1="121.11" x2="262.958" y2="142.312"/>
  <line style="fill: none; fill-opacity:0; stroke-width: 2; stroke: #000000" x1="175.585" y1="139.648" x2="264.415" y2="51.9624"/>
  <line style="fill: none; fill-opacity:0; stroke-width: 2; stroke: #000000" x1="177.243" y1="143.68" x2="262.757" y2="143.68"/>
  <line style="fill: none; fill-opacity:0; stroke-width: 2; stroke: #000000" x1="175.585" y1="147.712" x2="264.415" y2="235.398"/>
  <line style="fill: none; fill-opacity:0; stroke-width: 2; stroke: #000000" x1="176.639" y1="146.216" x2="263.361" y2="189.019"/>
  <line style="fill: none; fill-opacity:0; stroke-width: 2; stroke: #000000" x1="175.111" y1="163.161" x2="264.888" y2="52.3861"/>
  <line style="fill: none; fill-opacity:0; stroke-width: 2; stroke: #000000" x1="171.5" y1="162.867" x2="262.994" y2="189.927"/>
  <line style="fill: none; fill-opacity:0; stroke-width: 2; stroke: #000000" x1="176.124" y1="171.041" x2="263.876" y2="236.007"/>
  <line style="fill: none; fill-opacity:0; stroke-width: 2; stroke: #000000" x1="174.626" y1="186.926" x2="265.374" y2="52.5585"/>
  <line style="fill: none; fill-opacity:0; stroke-width: 2; stroke: #000000" x1="175.585" y1="187.523" x2="264.415" y2="99.8374"/>
  <line style="fill: none; fill-opacity:0; stroke-width: 2; stroke: #000000" x1="177.243" y1="191.555" x2="262.757" y2="191.555"/>
  <line style="fill: none; fill-opacity:0; stroke-width: 2; stroke: #000000" x1="176.639" y1="194.091" x2="263.361" y2="236.894"/>
  <line style="fill: none; fill-opacity:0; stroke-width: 2; stroke: #000000" x1="174.365" y1="210.543" x2="265.634" y2="52.88"/>
  <line style="fill: none; fill-opacity:0; stroke-width: 2; stroke: #000000" x1="177.041" y1="214.125" x2="262.958" y2="192.923"/>
  <line style="fill: none; fill-opacity:0; stroke-width: 2; stroke: #000000" x1="174.626" y1="234.801" x2="265.374" y2="100.434"/>
  <line style="fill: none; fill-opacity:0; stroke-width: 2; stroke: #000000" x1="176.639" y1="236.894" x2="263.361" y2="194.091"/>
  <line style="fill: none; fill-opacity:0; stroke-width: 2; stroke: #000000" x1="177.243" y1="239.43" x2="262.757" y2="239.43"/>
</svg>
