<?xml version="1.0" encoding="UTF-8" standalone="no"?>
<!DOCTYPE svg PUBLIC "-//W3C//DTD SVG 1.0//EN" "http://www.w3.org/TR/2001/PR-SVG-20010719/DTD/svg10.dtd">
<svg width="44cm" height="48cm" viewBox="-159 -41 863 946" xmlns="http://www.w3.org/2000/svg" xmlns:xlink="http://www.w3.org/1999/xlink">
  <g>
    <rect style="fill: #ffffff" x="-157.66" y="-39.632" width="860.986" height="943.166"/>
    <rect style="fill: none; fill-opacity:0; stroke-width: 2; stroke: #000000" x="-157.66" y="-39.632" width="860.986" height="943.166"/>
  </g>
  <g>
    <rect style="fill: #e5e7d5" x="229.484" y="13.6" width="85.3333" height="52.3333"/>
    <rect style="fill: none; fill-opacity:0; stroke-width: 2; stroke: #000000" x="229.484" y="13.6" width="85.3333" height="52.3333"/>
    <text font-size="12.8" style="fill: #714b1d;text-anchor:middle;font-family:sans-serif;font-style:normal;font-weight:normal" x="272.151" y="43.6667">
      <tspan x="272.151" y="43.6667">Study</tspan>
    </text>
  </g>
  <g>
    <rect style="fill: #e5e7d5" x="160.417" y="372.8" width="97.4" height="54"/>
    <rect style="fill: none; fill-opacity:0; stroke-width: 2; stroke: #000000" x="160.417" y="372.8" width="97.4" height="54"/>
    <text font-size="12.8" style="fill: #714b1d;text-anchor:middle;font-family:sans-serif;font-style:normal;font-weight:normal" x="209.117" y="395.7">
      <tspan x="209.117" y="395.7">Interpretive</tspan>
      <tspan x="209.117" y="411.7">sample</tspan>
    </text>
  </g>
  <g>
    <rect style="fill: #e5e7d5" x="-22" y="569.8" width="94.15" height="54"/>
    <rect style="fill: none; fill-opacity:0; stroke-width: 2; stroke: #000000" x="-22" y="569.8" width="94.15" height="54"/>
    <text font-size="12.8" style="fill: #714b1d;text-anchor:middle;font-family:sans-serif;font-style:normal;font-weight:normal" x="25.075" y="592.7">
      <tspan x="25.075" y="592.7">Abundance</tspan>
      <tspan x="25.075" y="608.7">data</tspan>
    </text>
  </g>
  <g>
    <rect style="fill: #e5e7d5" x="218.65" y="673.8" width="94.15" height="54"/>
    <rect style="fill: none; fill-opacity:0; stroke-width: 2; stroke: #000000" x="218.65" y="673.8" width="94.15" height="54"/>
    <text font-size="12.8" style="fill: #714b1d;text-anchor:middle;font-family:sans-serif;font-style:normal;font-weight:normal" x="265.725" y="696.7">
      <tspan x="265.725" y="696.7">Toxicity</tspan>
      <tspan x="265.725" y="712.7">data</tspan>
    </text>
  </g>
  <g>
    <rect style="fill: #e5e7d5" x="358.418" y="728.468" width="94.15" height="54"/>
    <rect style="fill: none; fill-opacity:0; stroke-width: 2; stroke: #000000" x="358.418" y="728.468" width="94.15" height="54"/>
    <text font-size="12.8" style="fill: #714b1d;text-anchor:middle;font-family:sans-serif;font-style:normal;font-weight:normal" x="405.493" y="751.368">
      <tspan x="405.493" y="751.368">Lab</tspan>
      <tspan x="405.493" y="767.368">sample</tspan>
    </text>
  </g>
  <g>
    <polyline style="fill: none; fill-opacity:0; stroke-width: 2; stroke: #000000" points="184.767,426.8 184.767,596.8 72.15,596.8 "/>
    <line style="fill: none; fill-opacity:0; stroke-width: 2; stroke: #000000" x1="82.15" y1="596.8" x2="72.15" y2="591.8"/>
    <line style="fill: none; fill-opacity:0; stroke-width: 2; stroke: #000000" x1="82.15" y1="596.8" x2="72.15" y2="601.8"/>
    <text font-size="9.6" style="fill: #000000;text-anchor:start;font-family:monospace;font-style:normal;font-weight:normal" x="188.767" y="438.8">1</text>
    <text font-size="9.6" style="fill: #000000;text-anchor:start;font-family:monospace;font-style:normal;font-weight:normal" x="76.15" y="592.8">n</text>
  </g>
  <g>
    <polyline style="fill: none; fill-opacity:0; stroke-width: 2; stroke: #000000" points="265.525,611.766 265.525,642.28 265.725,642.28 265.725,672.793 "/>
    <line style="fill: none; fill-opacity:0; stroke-width: 2; stroke: #000000" x1="265.725" y1="662.793" x2="260.725" y2="672.793"/>
    <line style="fill: none; fill-opacity:0; stroke-width: 2; stroke: #000000" x1="265.725" y1="662.793" x2="270.725" y2="672.793"/>
    <text font-size="9.6" style="fill: #000000;text-anchor:start;font-family:monospace;font-style:normal;font-weight:normal" x="269.525" y="623.766">1</text>
    <text font-size="9.6" style="fill: #000000;text-anchor:start;font-family:monospace;font-style:normal;font-weight:normal" x="269.725" y="668.793">n</text>
  </g>
  <g>
    <polyline style="fill: none; fill-opacity:0; stroke-width: 2; stroke: #000000" points="289.8,611.766 289.8,647 381.956,647 381.956,728.468 "/>
    <line style="fill: none; fill-opacity:0; stroke-width: 2; stroke: #000000" x1="381.956" y1="718.468" x2="376.956" y2="728.468"/>
    <line style="fill: none; fill-opacity:0; stroke-width: 2; stroke: #000000" x1="381.956" y1="718.468" x2="386.956" y2="728.468"/>
    <text font-size="9.6" style="fill: #000000;text-anchor:start;font-family:monospace;font-style:normal;font-weight:normal" x="293.8" y="623.766">1</text>
    <text font-size="9.6" style="fill: #000000;text-anchor:start;font-family:monospace;font-style:normal;font-weight:normal" x="385.956" y="724.468">n</text>
  </g>
  <g>
    <rect style="fill: #e5e7d5" x="241.25" y="557.766" width="97.1" height="54"/>
    <rect style="fill: none; fill-opacity:0; stroke-width: 2; stroke: #000000" x="241.25" y="557.766" width="97.1" height="54"/>
    <text font-size="12.8" style="fill: #714b1d;text-anchor:middle;font-family:sans-serif;font-style:normal;font-weight:normal" x="289.8" y="580.666">
      <tspan x="289.8" y="580.666">Analytical</tspan>
      <tspan x="289.8" y="596.666">sample</tspan>
    </text>
  </g>
  <g>
    <polyline style="fill: none; fill-opacity:0; stroke-width: 2; stroke: #000000" points="209.117,427.807 209.117,492.283 289.8,492.283 289.8,556.759 "/>
    <line style="fill: none; fill-opacity:0; stroke-width: 2; stroke: #000000" x1="289.8" y1="546.759" x2="284.8" y2="556.759"/>
    <line style="fill: none; fill-opacity:0; stroke-width: 2; stroke: #000000" x1="289.8" y1="546.759" x2="294.8" y2="556.759"/>
    <text font-size="9.6" style="fill: #000000;text-anchor:start;font-family:monospace;font-style:normal;font-weight:normal" x="213.117" y="439.807">1</text>
    <text font-size="9.6" style="fill: #000000;text-anchor:start;font-family:monospace;font-style:normal;font-weight:normal" x="293.8" y="552.759">n</text>
  </g>
  <g>
    <rect style="fill: #e5e7d5" x="530.918" y="609.768" width="97.1" height="54"/>
    <rect style="fill: none; fill-opacity:0; stroke-width: 2; stroke: #000000" x="530.918" y="609.768" width="97.1" height="54"/>
    <text font-size="12.8" style="fill: #714b1d;text-anchor:middle;font-family:sans-serif;font-style:normal;font-weight:normal" x="579.468" y="632.668">
      <tspan x="579.468" y="632.668">Sample</tspan>
      <tspan x="579.468" y="648.668">container</tspan>
    </text>
  </g>
  <g>
    <rect style="fill: #e5e7d5" x="553.25" y="105.433" width="97.1" height="54"/>
    <rect style="fill: none; fill-opacity:0; stroke-width: 2; stroke: #000000" x="553.25" y="105.433" width="97.1" height="54"/>
    <text font-size="12.8" style="fill: #714b1d;text-anchor:middle;font-family:sans-serif;font-style:normal;font-weight:normal" x="601.8" y="128.333">
      <tspan x="601.8" y="128.333">Field QC</tspan>
      <tspan x="601.8" y="144.333">sample</tspan>
    </text>
  </g>
  <g>
    <rect style="fill: #e5e7d5" x="575.25" y="214.266" width="97.1" height="54"/>
    <rect style="fill: none; fill-opacity:0; stroke-width: 2; stroke: #000000" x="575.25" y="214.266" width="97.1" height="54"/>
    <text font-size="12.8" style="fill: #714b1d;text-anchor:middle;font-family:sans-serif;font-style:normal;font-weight:normal" x="623.8" y="237.166">
      <tspan x="623.8" y="237.166">Field QC</tspan>
      <tspan x="623.8" y="253.166">split</tspan>
    </text>
  </g>
  <g>
    <polyline style="fill: none; fill-opacity:0; stroke-width: 2; stroke: #000000" points="601.8,160.44 601.8,186.85 623.8,186.85 623.8,213.259 "/>
    <line style="fill: none; fill-opacity:0; stroke-width: 2; stroke: #000000" x1="623.8" y1="203.259" x2="618.8" y2="213.259"/>
    <line style="fill: none; fill-opacity:0; stroke-width: 2; stroke: #000000" x1="623.8" y1="203.259" x2="628.8" y2="213.259"/>
    <text font-size="9.6" style="fill: #000000;text-anchor:start;font-family:monospace;font-style:normal;font-weight:normal" x="605.8" y="172.44">1</text>
    <text font-size="9.6" style="fill: #000000;text-anchor:start;font-family:monospace;font-style:normal;font-weight:normal" x="627.8" y="209.259">n</text>
  </g>
  <g>
    <polyline style="fill: none; fill-opacity:0; stroke-width: 2; stroke: #000000" points="623.8,268.266 623.8,439.017 603.743,439.017 603.743,609.768 "/>
    <line style="fill: none; fill-opacity:0; stroke-width: 2; stroke: #000000" x1="603.743" y1="599.768" x2="598.743" y2="609.768"/>
    <line style="fill: none; fill-opacity:0; stroke-width: 2; stroke: #000000" x1="603.743" y1="599.768" x2="608.743" y2="609.768"/>
    <text font-size="9.6" style="fill: #000000;text-anchor:start;font-family:monospace;font-style:normal;font-weight:normal" x="627.8" y="280.266">1</text>
    <text font-size="9.6" style="fill: #000000;text-anchor:start;font-family:monospace;font-style:normal;font-weight:normal" x="607.743" y="605.768">n</text>
  </g>
  <g>
    <polyline style="fill: none; fill-opacity:0; stroke-width: 2; stroke: #000000" points="314.818,52.85 601.8,52.85 601.8,105.433 "/>
    <line style="fill: none; fill-opacity:0; stroke-width: 2; stroke: #000000" x1="601.8" y1="95.4334" x2="596.8" y2="105.433"/>
    <line style="fill: none; fill-opacity:0; stroke-width: 2; stroke: #000000" x1="601.8" y1="95.4334" x2="606.8" y2="105.433"/>
    <text font-size="9.6" style="fill: #000000;text-anchor:start;font-family:monospace;font-style:normal;font-weight:normal" x="318.818" y="48.85">1</text>
    <text font-size="9.6" style="fill: #000000;text-anchor:start;font-family:monospace;font-style:normal;font-weight:normal" x="605.8" y="101.433">n</text>
  </g>
  <g>
    <rect style="fill: #e5e7d5" x="100.108" y="123.967" width="86.375" height="54"/>
    <rect style="fill: none; fill-opacity:0; stroke-width: 2; stroke: #000000" x="100.108" y="123.967" width="86.375" height="54"/>
    <text font-size="12.8" style="fill: #714b1d;text-anchor:middle;font-family:sans-serif;font-style:normal;font-weight:normal" x="143.295" y="146.867">
      <tspan x="143.295" y="146.867">Study</tspan>
      <tspan x="143.295" y="162.867">location</tspan>
    </text>
  </g>
  <g>
    <rect style="fill: #e5e7d5" x="-18.516" y="13.5334" width="86.375" height="54"/>
    <rect style="fill: none; fill-opacity:0; stroke-width: 2; stroke: #000000" x="-18.516" y="13.5334" width="86.375" height="54"/>
    <text font-size="12.8" style="fill: #714b1d;text-anchor:middle;font-family:sans-serif;font-style:normal;font-weight:normal" x="24.6715" y="44.4334">
      <tspan x="24.6715" y="44.4334">Location</tspan>
    </text>
  </g>
  <g>
    <rect style="fill: #e5e7d5" x="166.484" y="225.534" width="86.375" height="54"/>
    <rect style="fill: none; fill-opacity:0; stroke-width: 2; stroke: #000000" x="166.484" y="225.534" width="86.375" height="54"/>
    <text font-size="12.8" style="fill: #714b1d;text-anchor:middle;font-family:sans-serif;font-style:normal;font-weight:normal" x="209.672" y="256.434">
      <tspan x="209.672" y="256.434">Collection</tspan>
    </text>
  </g>
  <g>
    <rect style="fill: #e5e7d5" x="15.346" y="227.134" width="98.65" height="54"/>
    <rect style="fill: none; fill-opacity:0; stroke-width: 2; stroke: #000000" x="15.346" y="227.134" width="98.65" height="54"/>
    <text font-size="12.8" style="fill: #714b1d;text-anchor:middle;font-family:sans-serif;font-style:normal;font-weight:normal" x="64.671" y="250.034">
      <tspan x="64.671" y="250.034">Gear</tspan>
      <tspan x="64.671" y="266.034">deployment</tspan>
    </text>
  </g>
  <g>
    <rect style="fill: #e5e7d5" x="358.484" y="821.534" width="94.15" height="54"/>
    <rect style="fill: none; fill-opacity:0; stroke-width: 2; stroke: #000000" x="358.484" y="821.534" width="94.15" height="54"/>
    <text font-size="12.8" style="fill: #714b1d;text-anchor:middle;font-family:sans-serif;font-style:normal;font-weight:normal" x="405.559" y="844.434">
      <tspan x="405.559" y="844.434">Chemistry</tspan>
      <tspan x="405.559" y="860.434">data</tspan>
    </text>
  </g>
  <g>
    <polyline style="fill: none; fill-opacity:0; stroke-width: 2; stroke: #000000" points="209.672,279.534 209.672,326.167 209.117,326.167 209.117,372.8 "/>
    <line style="fill: none; fill-opacity:0; stroke-width: 2; stroke: #000000" x1="209.117" y1="362.8" x2="204.117" y2="372.8"/>
    <line style="fill: none; fill-opacity:0; stroke-width: 2; stroke: #000000" x1="209.117" y1="362.8" x2="214.117" y2="372.8"/>
    <text font-size="9.6" style="fill: #000000;text-anchor:start;font-family:monospace;font-style:normal;font-weight:normal" x="213.671" y="291.534">1</text>
    <text font-size="9.6" style="fill: #000000;text-anchor:start;font-family:monospace;font-style:normal;font-weight:normal" x="213.117" y="368.8">n</text>
  </g>
  <g>
    <polyline style="fill: none; fill-opacity:0; stroke-width: 2; stroke: #000000" points="24.6716,67.5334 24.6716,95.7502 121.702,95.7502 121.702,123.967 "/>
    <line style="fill: none; fill-opacity:0; stroke-width: 2; stroke: #000000" x1="121.702" y1="113.967" x2="116.702" y2="123.967"/>
    <line style="fill: none; fill-opacity:0; stroke-width: 2; stroke: #000000" x1="121.702" y1="113.967" x2="126.702" y2="123.967"/>
    <text font-size="9.6" style="fill: #000000;text-anchor:start;font-family:monospace;font-style:normal;font-weight:normal" x="28.6716" y="79.5334">1</text>
    <text font-size="9.6" style="fill: #000000;text-anchor:start;font-family:monospace;font-style:normal;font-weight:normal" x="125.702" y="119.967">n</text>
  </g>
  <g>
    <polyline style="fill: none; fill-opacity:0; stroke-width: 2; stroke: #000000" points="250.817,65.9333 250.817,94.9501 164.889,94.9501 164.889,123.967 "/>
    <line style="fill: none; fill-opacity:0; stroke-width: 2; stroke: #000000" x1="164.889" y1="113.967" x2="159.889" y2="123.967"/>
    <line style="fill: none; fill-opacity:0; stroke-width: 2; stroke: #000000" x1="164.889" y1="113.967" x2="169.889" y2="123.967"/>
    <text font-size="9.6" style="fill: #000000;text-anchor:start;font-family:monospace;font-style:normal;font-weight:normal" x="254.817" y="77.9333">1</text>
    <text font-size="9.6" style="fill: #000000;text-anchor:start;font-family:monospace;font-style:normal;font-weight:normal" x="168.889" y="119.967">n</text>
  </g>
  <g>
    <polyline style="fill: none; fill-opacity:0; stroke-width: 2; stroke: #000000" points="164.889,177.967 164.889,201.75 209.672,201.75 209.672,225.534 "/>
    <line style="fill: none; fill-opacity:0; stroke-width: 2; stroke: #000000" x1="209.672" y1="215.534" x2="204.672" y2="225.534"/>
    <line style="fill: none; fill-opacity:0; stroke-width: 2; stroke: #000000" x1="209.672" y1="215.534" x2="214.672" y2="225.534"/>
    <text font-size="9.6" style="fill: #000000;text-anchor:start;font-family:monospace;font-style:normal;font-weight:normal" x="168.889" y="189.967">1</text>
    <text font-size="9.6" style="fill: #000000;text-anchor:start;font-family:monospace;font-style:normal;font-weight:normal" x="213.671" y="221.534">n</text>
  </g>
  <g>
    <polyline style="fill: none; fill-opacity:0; stroke-width: 2; stroke: #000000" points="648.076,268.266 648.076,702.534 429.03,702.534 429.03,728.468 "/>
    <line style="fill: none; fill-opacity:0; stroke-width: 2; stroke: #000000" x1="429.03" y1="718.468" x2="424.03" y2="728.468"/>
    <line style="fill: none; fill-opacity:0; stroke-width: 2; stroke: #000000" x1="429.03" y1="718.468" x2="434.03" y2="728.468"/>
    <text font-size="9.6" style="fill: #000000;text-anchor:start;font-family:monospace;font-style:normal;font-weight:normal" x="652.076" y="280.266">1</text>
    <text font-size="9.6" style="fill: #000000;text-anchor:start;font-family:monospace;font-style:normal;font-weight:normal" x="433.03" y="724.468">n</text>
  </g>
  <g>
    <polyline style="fill: none; fill-opacity:0; stroke-width: 2; stroke: #000000" points="338.35,571.266 555.193,571.266 555.193,609.768 "/>
    <line style="fill: none; fill-opacity:0; stroke-width: 2; stroke: #000000" x1="555.193" y1="599.768" x2="550.193" y2="609.768"/>
    <line style="fill: none; fill-opacity:0; stroke-width: 2; stroke: #000000" x1="555.193" y1="599.768" x2="560.193" y2="609.768"/>
    <text font-size="9.6" style="fill: #000000;text-anchor:start;font-family:monospace;font-style:normal;font-weight:normal" x="342.35" y="567.266">1</text>
    <text font-size="9.6" style="fill: #000000;text-anchor:start;font-family:monospace;font-style:normal;font-weight:normal" x="559.193" y="605.768">n</text>
  </g>
  <g>
    <polyline style="fill: none; fill-opacity:0; stroke-width: 2; stroke: #000000" points="121.702,177.967 121.702,202.55 64.671,202.55 64.671,227.134 "/>
    <line style="fill: none; fill-opacity:0; stroke-width: 2; stroke: #000000" x1="64.671" y1="217.134" x2="59.671" y2="227.134"/>
    <line style="fill: none; fill-opacity:0; stroke-width: 2; stroke: #000000" x1="64.671" y1="217.134" x2="69.671" y2="227.134"/>
    <text font-size="9.6" style="fill: #000000;text-anchor:start;font-family:monospace;font-style:normal;font-weight:normal" x="125.702" y="189.967">1</text>
    <text font-size="9.6" style="fill: #000000;text-anchor:start;font-family:monospace;font-style:normal;font-weight:normal" x="68.671" y="223.134">n</text>
  </g>
  <g>
    <polyline style="fill: none; fill-opacity:0; stroke-width: 2; stroke: #000000" points="405.493,783.475 405.493,802.504 405.559,802.504 405.559,821.534 "/>
    <line style="fill: none; fill-opacity:0; stroke-width: 2; stroke: #000000" x1="405.559" y1="811.534" x2="400.559" y2="821.534"/>
    <line style="fill: none; fill-opacity:0; stroke-width: 2; stroke: #000000" x1="405.559" y1="811.534" x2="410.559" y2="821.534"/>
    <text font-size="9.6" style="fill: #000000;text-anchor:start;font-family:monospace;font-style:normal;font-weight:normal" x="409.493" y="795.475">1</text>
    <text font-size="9.6" style="fill: #000000;text-anchor:start;font-family:monospace;font-style:normal;font-weight:normal" x="409.559" y="817.534">n</text>
  </g>
  <g>
    <rect style="fill: #e5e7d5" x="-21.5" y="643" width="94.15" height="54"/>
    <rect style="fill: none; fill-opacity:0; stroke-width: 2; stroke: #000000" x="-21.5" y="643" width="94.15" height="54"/>
    <text font-size="12.8" style="fill: #714b1d;text-anchor:middle;font-family:sans-serif;font-style:normal;font-weight:normal" x="25.575" y="665.9">
      <tspan x="25.575" y="665.9">Histopath.</tspan>
      <tspan x="25.575" y="681.9">data</tspan>
    </text>
  </g>
  <g>
    <polyline style="fill: none; fill-opacity:0; stroke-width: 2; stroke: #000000" points="184.767,426.8 184.767,670 72.65,670 "/>
    <line style="fill: none; fill-opacity:0; stroke-width: 2; stroke: #000000" x1="82.65" y1="670" x2="72.65" y2="665"/>
    <line style="fill: none; fill-opacity:0; stroke-width: 2; stroke: #000000" x1="82.65" y1="670" x2="72.65" y2="675"/>
    <text font-size="9.6" style="fill: #000000;text-anchor:start;font-family:monospace;font-style:normal;font-weight:normal" x="188.767" y="438.8">1</text>
    <text font-size="9.6" style="fill: #000000;text-anchor:start;font-family:monospace;font-style:normal;font-weight:normal" x="76.65" y="666">n</text>
  </g>
  <g>
    <rect style="fill: #e5e7d5" x="-21.5" y="714" width="94.15" height="54"/>
    <rect style="fill: none; fill-opacity:0; stroke-width: 2; stroke: #000000" x="-21.5" y="714" width="94.15" height="54"/>
    <text font-size="12.8" style="fill: #714b1d;text-anchor:middle;font-family:sans-serif;font-style:normal;font-weight:normal" x="25.575" y="736.9">
      <tspan x="25.575" y="736.9">Bioaccum.</tspan>
      <tspan x="25.575" y="752.9">test data</tspan>
    </text>
  </g>
  <g>
    <polyline style="fill: none; fill-opacity:0; stroke-width: 2; stroke: #000000" points="184.767,426.8 184.767,727.5 72.65,727.5 "/>
    <line style="fill: none; fill-opacity:0; stroke-width: 2; stroke: #000000" x1="82.65" y1="727.5" x2="72.65" y2="722.5"/>
    <line style="fill: none; fill-opacity:0; stroke-width: 2; stroke: #000000" x1="82.65" y1="727.5" x2="72.65" y2="732.5"/>
    <text font-size="9.6" style="fill: #000000;text-anchor:start;font-family:monospace;font-style:normal;font-weight:normal" x="188.767" y="438.8">1</text>
    <text font-size="9.6" style="fill: #000000;text-anchor:start;font-family:monospace;font-style:normal;font-weight:normal" x="76.65" y="723.5">n</text>
  </g>
  <g>
    <polyline style="fill: none; fill-opacity:0; stroke-width: 2; stroke: #000000" points="72.65,754.5 215.534,754.5 215.534,755.468 358.418,755.468 "/>
    <line style="fill: none; fill-opacity:0; stroke-width: 2; stroke: #000000" x1="348.418" y1="755.468" x2="358.418" y2="760.468"/>
    <line style="fill: none; fill-opacity:0; stroke-width: 2; stroke: #000000" x1="348.418" y1="755.468" x2="358.418" y2="750.468"/>
    <text font-size="9.6" style="fill: #000000;text-anchor:start;font-family:monospace;font-style:normal;font-weight:normal" x="76.65" y="750.5">1</text>
    <text font-size="9.6" style="fill: #000000;text-anchor:end;font-family:monospace;font-style:normal;font-weight:normal" x="354.418" y="751.468">n</text>
  </g>
  <g>
    <rect style="fill: #e5e7d5" x="389.5" y="454" width="97.1" height="54"/>
    <rect style="fill: none; fill-opacity:0; stroke-width: 2; stroke: #000000" x="389.5" y="454" width="97.1" height="54"/>
    <text font-size="12.8" style="fill: #714b1d;text-anchor:middle;font-family:sans-serif;font-style:normal;font-weight:normal" x="438.05" y="476.9">
      <tspan x="438.05" y="476.9">Treated</tspan>
      <tspan x="438.05" y="492.9">sample</tspan>
    </text>
  </g>
  <g>
    <polyline style="fill: none; fill-opacity:0; stroke-width: 2; stroke: #000000" points="257.817,413.3 323.658,413.3 323.658,481 389.5,481 "/>
    <line style="fill: none; fill-opacity:0; stroke-width: 2; stroke: #000000" x1="379.5" y1="481" x2="389.5" y2="486"/>
    <line style="fill: none; fill-opacity:0; stroke-width: 2; stroke: #000000" x1="379.5" y1="481" x2="389.5" y2="476"/>
    <text font-size="9.6" style="fill: #000000;text-anchor:start;font-family:monospace;font-style:normal;font-weight:normal" x="261.817" y="409.3">1</text>
    <text font-size="9.6" style="fill: #000000;text-anchor:end;font-family:monospace;font-style:normal;font-weight:normal" x="385.5" y="477">n</text>
  </g>
  <g>
    <rect style="fill: #e5e7d5" x="406.5" y="591" width="97.1" height="54"/>
    <rect style="fill: none; fill-opacity:0; stroke-width: 2; stroke: #000000" x="406.5" y="591" width="97.1" height="54"/>
    <text font-size="12.8" style="fill: #714b1d;text-anchor:middle;font-family:sans-serif;font-style:normal;font-weight:normal" x="455.05" y="613.9">
      <tspan x="455.05" y="613.9">Treated</tspan>
      <tspan x="455.05" y="629.9">split</tspan>
    </text>
  </g>
  <g>
    <polyline style="fill: none; fill-opacity:0; stroke-width: 2; stroke: #000000" points="438.05,508 438.05,549.5 455.05,549.5 455.05,591 "/>
    <line style="fill: none; fill-opacity:0; stroke-width: 2; stroke: #000000" x1="455.05" y1="581" x2="450.05" y2="591"/>
    <line style="fill: none; fill-opacity:0; stroke-width: 2; stroke: #000000" x1="455.05" y1="581" x2="460.05" y2="591"/>
    <text font-size="9.6" style="fill: #000000;text-anchor:start;font-family:monospace;font-style:normal;font-weight:normal" x="442.05" y="520">1</text>
    <text font-size="9.6" style="fill: #000000;text-anchor:start;font-family:monospace;font-style:normal;font-weight:normal" x="459.05" y="587">n</text>
  </g>
  <g>
    <polyline style="fill: none; fill-opacity:0; stroke-width: 2; stroke: #000000" points="455.05,645 455.05,686.734 405.493,686.734 405.493,728.468 "/>
    <line style="fill: none; fill-opacity:0; stroke-width: 2; stroke: #000000" x1="405.493" y1="718.468" x2="400.493" y2="728.468"/>
    <line style="fill: none; fill-opacity:0; stroke-width: 2; stroke: #000000" x1="405.493" y1="718.468" x2="410.493" y2="728.468"/>
    <text font-size="9.6" style="fill: #000000;text-anchor:start;font-family:monospace;font-style:normal;font-weight:normal" x="459.05" y="657">1</text>
    <text font-size="9.6" style="fill: #000000;text-anchor:start;font-family:monospace;font-style:normal;font-weight:normal" x="409.493" y="724.468">n</text>
  </g>
  <g>
    <rect style="fill: #e5e7d5" x="-123.5" y="124" width="86.375" height="54"/>
    <rect style="fill: none; fill-opacity:0; stroke-width: 2; stroke: #000000" x="-123.5" y="124" width="86.375" height="54"/>
    <text font-size="12.8" style="fill: #714b1d;text-anchor:middle;font-family:sans-serif;font-style:normal;font-weight:normal" x="-80.3125" y="154.9">
      <tspan x="-80.3125" y="154.9">Well</tspan>
    </text>
  </g>
  <g>
    <polyline style="fill: none; fill-opacity:0; stroke-width: 2; stroke: #000000" points="3.07775,67.5334 3.07775,95.7667 -80.3125,95.7667 -80.3125,124 "/>
    <line style="fill: none; fill-opacity:0; stroke-width: 2; stroke: #000000" x1="-80.3125" y1="114" x2="-85.3125" y2="124"/>
    <line style="fill: none; fill-opacity:0; stroke-width: 2; stroke: #000000" x1="-80.3125" y1="114" x2="-75.3125" y2="124"/>
    <text font-size="9.6" style="fill: #000000;text-anchor:start;font-family:monospace;font-style:normal;font-weight:normal" x="7.07775" y="79.5334">1</text>
    <text font-size="9.6" style="fill: #000000;text-anchor:start;font-family:monospace;font-style:normal;font-weight:normal" x="-76.3125" y="120">n</text>
  </g>
  <g>
    <rect style="fill: #e5e7d5" x="-124" y="192" width="86.375" height="54"/>
    <rect style="fill: none; fill-opacity:0; stroke-width: 2; stroke: #000000" x="-124" y="192" width="86.375" height="54"/>
    <text font-size="12.8" style="fill: #714b1d;text-anchor:middle;font-family:sans-serif;font-style:normal;font-weight:normal" x="-80.8125" y="214.9">
      <tspan x="-80.8125" y="214.9">Boring</tspan>
      <tspan x="-80.8125" y="230.9">log</tspan>
    </text>
  </g>
  <g>
    <polyline style="fill: none; fill-opacity:0; stroke-width: 2; stroke: #000000" points="3.07775,67.5334 3.07775,205.5 -37.625,205.5 "/>
    <line style="fill: none; fill-opacity:0; stroke-width: 2; stroke: #000000" x1="-27.625" y1="205.5" x2="-37.625" y2="200.5"/>
    <line style="fill: none; fill-opacity:0; stroke-width: 2; stroke: #000000" x1="-27.625" y1="205.5" x2="-37.625" y2="210.5"/>
    <text font-size="9.6" style="fill: #000000;text-anchor:start;font-family:monospace;font-style:normal;font-weight:normal" x="7.07775" y="79.5334">1</text>
    <text font-size="9.6" style="fill: #000000;text-anchor:start;font-family:monospace;font-style:normal;font-weight:normal" x="-33.625" y="201.5">n</text>
  </g>
  <g>
    <rect style="fill: #e5e7d5" x="-89.5" y="359" width="98.65" height="54"/>
    <rect style="fill: none; fill-opacity:0; stroke-width: 2; stroke: #000000" x="-89.5" y="359" width="98.65" height="54"/>
    <text font-size="12.8" style="fill: #714b1d;text-anchor:middle;font-family:sans-serif;font-style:normal;font-weight:normal" x="-40.175" y="381.9">
      <tspan x="-40.175" y="381.9">Sample</tspan>
      <tspan x="-40.175" y="397.9">meas.</tspan>
    </text>
  </g>
  <g>
    <rect style="fill: #e5e7d5" x="-88.5" y="427" width="98.65" height="54"/>
    <rect style="fill: none; fill-opacity:0; stroke-width: 2; stroke: #000000" x="-88.5" y="427" width="98.65" height="54"/>
    <text font-size="12.8" style="fill: #714b1d;text-anchor:middle;font-family:sans-serif;font-style:normal;font-weight:normal" x="-39.175" y="449.9">
      <tspan x="-39.175" y="449.9">Site</tspan>
      <tspan x="-39.175" y="465.9">photo</tspan>
    </text>
  </g>
  <g>
    <polyline style="fill: none; fill-opacity:0; stroke-width: 2; stroke: #000000" points="160.417,386.3 84.7833,386.3 84.7833,386 9.15,386 "/>
    <line style="fill: none; fill-opacity:0; stroke-width: 2; stroke: #000000" x1="19.15" y1="386" x2="9.15" y2="381"/>
    <line style="fill: none; fill-opacity:0; stroke-width: 2; stroke: #000000" x1="19.15" y1="386" x2="9.15" y2="391"/>
    <text font-size="9.6" style="fill: #000000;text-anchor:end;font-family:monospace;font-style:normal;font-weight:normal" x="156.417" y="382.3">1</text>
    <text font-size="9.6" style="fill: #000000;text-anchor:start;font-family:monospace;font-style:normal;font-weight:normal" x="13.15" y="382">n</text>
  </g>
  <g>
    <polyline style="fill: none; fill-opacity:0; stroke-width: 2; stroke: #000000" points="160.417,399.8 85.2833,399.8 85.2833,454 10.15,454 "/>
    <line style="fill: none; fill-opacity:0; stroke-width: 2; stroke: #000000" x1="20.15" y1="454" x2="10.15" y2="449"/>
    <line style="fill: none; fill-opacity:0; stroke-width: 2; stroke: #000000" x1="20.15" y1="454" x2="10.15" y2="459"/>
    <text font-size="9.6" style="fill: #000000;text-anchor:end;font-family:monospace;font-style:normal;font-weight:normal" x="156.417" y="395.8">1</text>
    <text font-size="9.6" style="fill: #000000;text-anchor:start;font-family:monospace;font-style:normal;font-weight:normal" x="14.15" y="450">n</text>
  </g>
  <g>
    <rect style="fill: #e5e7d5" x="377.5" y="225" width="98.65" height="54"/>
    <rect style="fill: none; fill-opacity:0; stroke-width: 2; stroke: #000000" x="377.5" y="225" width="98.65" height="54"/>
    <text font-size="12.8" style="fill: #714b1d;text-anchor:middle;font-family:sans-serif;font-style:normal;font-weight:normal" x="426.825" y="247.9">
      <tspan x="426.825" y="247.9">Collection</tspan>
      <tspan x="426.825" y="263.9">meas.</tspan>
    </text>
  </g>
  <g>
    <rect style="fill: #e5e7d5" x="377.5" y="293" width="98.65" height="54"/>
    <rect style="fill: none; fill-opacity:0; stroke-width: 2; stroke: #000000" x="377.5" y="293" width="98.65" height="54"/>
    <text font-size="12.8" style="fill: #714b1d;text-anchor:middle;font-family:sans-serif;font-style:normal;font-weight:normal" x="426.825" y="315.9">
      <tspan x="426.825" y="315.9">Collection</tspan>
      <tspan x="426.825" y="331.9">char.</tspan>
    </text>
  </g>
  <g>
    <polyline style="fill: none; fill-opacity:0; stroke-width: 2; stroke: #000000" points="252.859,252.534 315.179,252.534 315.179,252 377.5,252 "/>
    <line style="fill: none; fill-opacity:0; stroke-width: 2; stroke: #000000" x1="367.5" y1="252" x2="377.5" y2="257"/>
    <line style="fill: none; fill-opacity:0; stroke-width: 2; stroke: #000000" x1="367.5" y1="252" x2="377.5" y2="247"/>
    <text font-size="9.6" style="fill: #000000;text-anchor:start;font-family:monospace;font-style:normal;font-weight:normal" x="256.859" y="248.534">1</text>
    <text font-size="9.6" style="fill: #000000;text-anchor:end;font-family:monospace;font-style:normal;font-weight:normal" x="373.5" y="248">n</text>
  </g>
  <g>
    <polyline style="fill: none; fill-opacity:0; stroke-width: 2; stroke: #000000" points="252.859,266.034 315.179,266.034 315.179,306.5 377.5,306.5 "/>
    <line style="fill: none; fill-opacity:0; stroke-width: 2; stroke: #000000" x1="367.5" y1="306.5" x2="377.5" y2="311.5"/>
    <line style="fill: none; fill-opacity:0; stroke-width: 2; stroke: #000000" x1="367.5" y1="306.5" x2="377.5" y2="301.5"/>
    <text font-size="9.6" style="fill: #000000;text-anchor:start;font-family:monospace;font-style:normal;font-weight:normal" x="256.859" y="262.034">1</text>
    <text font-size="9.6" style="fill: #000000;text-anchor:end;font-family:monospace;font-style:normal;font-weight:normal" x="373.5" y="302.5">n</text>
  </g>
  <g>
    <rect style="fill: #e5e7d5" x="-126.488" y="267" width="92.35" height="54"/>
    <rect style="fill: none; fill-opacity:0; stroke-width: 2; stroke: #000000" x="-126.488" y="267" width="92.35" height="54"/>
    <text font-size="12.8" style="fill: #714b1d;text-anchor:middle;font-family:sans-serif;font-style:normal;font-weight:normal" x="-80.3126" y="289.9">
      <tspan x="-80.3126" y="289.9">Instrument</tspan>
      <tspan x="-80.3126" y="305.9">data</tspan>
    </text>
  </g>
  <g>
    <polyline style="fill: none; fill-opacity:0; stroke-width: 2; stroke: #000000" points="15.346,267.634 -9.3958,267.634 -9.3958,280.5 -34.1376,280.5 "/>
    <line style="fill: none; fill-opacity:0; stroke-width: 2; stroke: #000000" x1="-24.1376" y1="280.5" x2="-34.1376" y2="275.5"/>
    <line style="fill: none; fill-opacity:0; stroke-width: 2; stroke: #000000" x1="-24.1376" y1="280.5" x2="-34.1376" y2="285.5"/>
    <text font-size="9.6" style="fill: #000000;text-anchor:end;font-family:monospace;font-style:normal;font-weight:normal" x="11.346" y="263.634">1</text>
    <text font-size="9.6" style="fill: #000000;text-anchor:start;font-family:monospace;font-style:normal;font-weight:normal" x="-30.1376" y="276.5">n</text>
  </g>
  <g>
    <rect style="fill: #e5e7d5" x="503.84" y="731" width="94.15" height="54"/>
    <rect style="fill: none; fill-opacity:0; stroke-width: 2; stroke: #000000" x="503.84" y="731" width="94.15" height="54"/>
    <text font-size="12.8" style="fill: #714b1d;text-anchor:middle;font-family:sans-serif;font-style:normal;font-weight:normal" x="550.915" y="753.9">
      <tspan x="550.915" y="753.9">Lab data</tspan>
      <tspan x="550.915" y="769.9">package</tspan>
    </text>
  </g>
  <g>
    <polyline style="fill: none; fill-opacity:0; stroke-width: 2; stroke: #000000" points="550.915,785 550.915,835.034 452.634,835.034 "/>
    <line style="fill: none; fill-opacity:0; stroke-width: 2; stroke: #000000" x1="462.634" y1="835.034" x2="452.634" y2="830.034"/>
    <line style="fill: none; fill-opacity:0; stroke-width: 2; stroke: #000000" x1="462.634" y1="835.034" x2="452.634" y2="840.034"/>
    <text font-size="9.6" style="fill: #000000;text-anchor:start;font-family:monospace;font-style:normal;font-weight:normal" x="554.915" y="797">1</text>
    <text font-size="9.6" style="fill: #000000;text-anchor:start;font-family:monospace;font-style:normal;font-weight:normal" x="456.634" y="831.034">n</text>
  </g>
  <g>
    <rect style="fill: #e5e7d5" x="99.8402" y="16" width="86.375" height="54"/>
    <rect style="fill: none; fill-opacity:0; stroke-width: 2; stroke: #000000" x="99.8402" y="16" width="86.375" height="54"/>
    <text font-size="12.8" style="fill: #714b1d;text-anchor:middle;font-family:sans-serif;font-style:normal;font-weight:normal" x="143.028" y="46.9">
      <tspan x="143.028" y="46.9">Site</tspan>
    </text>
  </g>
  <g>
    <polyline style="fill: none; fill-opacity:0; stroke-width: 2; stroke: #000000" points="143.028,70 143.028,96.9834 143.295,96.9834 143.295,123.967 "/>
    <line style="fill: none; fill-opacity:0; stroke-width: 2; stroke: #000000" x1="143.295" y1="113.967" x2="138.295" y2="123.967"/>
    <line style="fill: none; fill-opacity:0; stroke-width: 2; stroke: #000000" x1="143.295" y1="113.967" x2="148.295" y2="123.967"/>
    <text font-size="9.6" style="fill: #000000;text-anchor:start;font-family:monospace;font-style:normal;font-weight:normal" x="147.028" y="82">1</text>
    <text font-size="9.6" style="fill: #000000;text-anchor:start;font-family:monospace;font-style:normal;font-weight:normal" x="147.295" y="119.967">n</text>
  </g>
  <g>
    <rect style="fill: #e5e7d5" x="54.8402" y="491" width="94.15" height="54"/>
    <rect style="fill: none; fill-opacity:0; stroke-width: 2; stroke: #000000" x="54.8402" y="491" width="94.15" height="54"/>
    <text font-size="12.8" style="fill: #714b1d;text-anchor:middle;font-family:sans-serif;font-style:normal;font-weight:normal" x="101.915" y="513.9">
      <tspan x="101.915" y="513.9">Calculated</tspan>
      <tspan x="101.915" y="529.9">chemistry</tspan>
    </text>
  </g>
  <g>
    <polyline style="fill: none; fill-opacity:0; stroke-width: 2; stroke: #000000" points="160.417,413.3 125.453,413.3 125.453,491 "/>
    <line style="fill: none; fill-opacity:0; stroke-width: 2; stroke: #000000" x1="125.453" y1="481" x2="120.453" y2="491"/>
    <line style="fill: none; fill-opacity:0; stroke-width: 2; stroke: #000000" x1="125.453" y1="481" x2="130.453" y2="491"/>
    <text font-size="9.6" style="fill: #000000;text-anchor:end;font-family:monospace;font-style:normal;font-weight:normal" x="156.417" y="409.3">1</text>
    <text font-size="9.6" style="fill: #000000;text-anchor:start;font-family:monospace;font-style:normal;font-weight:normal" x="129.453" y="487">n</text>
  </g>
  <g>
    <rect style="fill: #e5e7d5" x="380.012" y="-19.632" width="85.3333" height="52.3333"/>
    <rect style="fill: none; fill-opacity:0; stroke-width: 2; stroke: #000000" x="380.012" y="-19.632" width="85.3333" height="52.3333"/>
    <text font-size="12.8" style="fill: #714b1d;text-anchor:middle;font-family:sans-serif;font-style:normal;font-weight:normal" x="422.679" y="10.4346">
      <tspan x="422.679" y="10.4346">Program</tspan>
    </text>
  </g>
  <g>
    <polyline style="fill: none; fill-opacity:0; stroke-width: 2; stroke: #000000" points="380.012,19.618 347.415,19.618 347.415,26.6833 314.817,26.6833 "/>
    <line style="fill: none; fill-opacity:0; stroke-width: 2; stroke: #000000" x1="324.817" y1="26.6833" x2="314.817" y2="21.6833"/>
    <line style="fill: none; fill-opacity:0; stroke-width: 2; stroke: #000000" x1="324.817" y1="26.6833" x2="314.817" y2="31.6833"/>
    <text font-size="9.6" style="fill: #000000;text-anchor:end;font-family:monospace;font-style:normal;font-weight:normal" x="376.012" y="15.618">1</text>
    <text font-size="9.6" style="fill: #000000;text-anchor:start;font-family:monospace;font-style:normal;font-weight:normal" x="318.817" y="22.6833">n</text>
  </g>
  <g>
    <rect style="fill: #e5e7d5" x="364.012" y="370.368" width="98.65" height="54"/>
    <rect style="fill: none; fill-opacity:0; stroke-width: 2; stroke: #000000" x="364.012" y="370.368" width="98.65" height="54"/>
    <text font-size="12.8" style="fill: #714b1d;text-anchor:middle;font-family:sans-serif;font-style:normal;font-weight:normal" x="413.337" y="393.268">
      <tspan x="413.337" y="393.268">Sampling</tspan>
      <tspan x="413.337" y="409.268">reason</tspan>
    </text>
  </g>
  <g>
    <polyline style="fill: none; fill-opacity:0; stroke-width: 2; stroke: #000000" points="257.817,386.3 310.914,386.3 310.914,397.368 364.012,397.368 "/>
    <line style="fill: none; fill-opacity:0; stroke-width: 2; stroke: #000000" x1="354.012" y1="397.368" x2="364.012" y2="402.368"/>
    <line style="fill: none; fill-opacity:0; stroke-width: 2; stroke: #000000" x1="354.012" y1="397.368" x2="364.012" y2="392.368"/>
    <text font-size="9.6" style="fill: #000000;text-anchor:start;font-family:monospace;font-style:normal;font-weight:normal" x="261.817" y="382.3">1</text>
    <text font-size="9.6" style="fill: #000000;text-anchor:end;font-family:monospace;font-style:normal;font-weight:normal" x="360.012" y="393.368">n</text>
  </g>
</svg>
