<?xml version="1.0" encoding="UTF-8" standalone="no"?>
<!DOCTYPE svg PUBLIC "-//W3C//DTD SVG 1.0//EN" "http://www.w3.org/TR/2001/PR-SVG-20010719/DTD/svg10.dtd">
<svg width="12cm" height="41cm" viewBox="164 125 224 808" xmlns="http://www.w3.org/2000/svg" xmlns:xlink="http://www.w3.org/1999/xlink">
  <g>
    <rect style="fill: #d8e5e5" x="166" y="126" width="221" height="806"/>
    <rect style="fill: none; fill-opacity:0; stroke-width: 2; stroke: #000000" x="166" y="126" width="221" height="806"/>
    <text font-size="12.8" style="fill: #000000;text-anchor:middle;font-family:sans-serif;font-style:normal;font-weight:normal" x="276.5" y="532.9">
      <tspan x="276.5" y="532.9"></tspan>
    </text>
  </g>
  <g>
    <rect style="fill: #e5e7d5" x="202.313" y="151" width="136.25" height="70"/>
    <path style="fill: #e5e7d5" d="M 202.313,151 A 4,4 0 0 0 198.313,155 L 202.313,155 z"/>
    <path style="fill: #e5e7d5" d="M 342.563,155 A 4,4 0 0 0 338.563,151 L 338.563,155 z"/>
    <rect style="fill: #e5e7d5" x="198.313" y="155" width="144.25" height="62"/>
    <path style="fill: #e5e7d5" d="M 198.313,217 A 4,4 0 0 0 202.313,221 L 202.313,217 z"/>
    <path style="fill: #e5e7d5" d="M 338.563,221 A 4,4 0 0 0 342.563,217 L 338.563,217 z"/>
    <line style="fill: none; fill-opacity:0; stroke-width: 2; stroke: #714b1d" x1="202.313" y1="151" x2="338.563" y2="151"/>
    <line style="fill: none; fill-opacity:0; stroke-width: 2; stroke: #714b1d" x1="202.313" y1="221" x2="338.563" y2="221"/>
    <path style="fill: none; fill-opacity:0; stroke-width: 2; stroke: #714b1d" d="M 202.313,151 A 4,4 0 0 0 198.313,155"/>
    <path style="fill: none; fill-opacity:0; stroke-width: 2; stroke: #714b1d" d="M 342.563,155 A 4,4 0 0 0 338.563,151"/>
    <line style="fill: none; fill-opacity:0; stroke-width: 2; stroke: #714b1d" x1="198.313" y1="155" x2="198.313" y2="217"/>
    <line style="fill: none; fill-opacity:0; stroke-width: 2; stroke: #714b1d" x1="342.563" y1="155" x2="342.563" y2="217"/>
    <path style="fill: none; fill-opacity:0; stroke-width: 2; stroke: #714b1d" d="M 198.313,217 A 4,4 0 0 0 202.313,221"/>
    <path style="fill: none; fill-opacity:0; stroke-width: 2; stroke: #714b1d" d="M 338.563,221 A 4,4 0 0 0 342.563,217"/>
    <text font-size="12.8" style="fill: #714b1d;text-anchor:middle;font-family:Arial;font-style:normal;font-weight:700" x="270.438" y="189.6">
      <tspan x="270.438" y="189.6">Project Goal</tspan>
    </text>
  </g>
  <text font-size="12.8" style="fill: #000000;text-anchor:start;font-family:sans-serif;font-style:normal;font-weight:normal" x="270.438" y="186">
    <tspan x="270.438" y="186"></tspan>
  </text>
  <g>
    <line style="fill: none; fill-opacity:0; stroke-width: 3; stroke: #714b1d" x1="270.438" y1="221" x2="270.438" y2="254.313"/>
    <polygon style="fill: #714b1d" points="270.438,261.813 265.438,251.813 270.438,254.313 275.438,251.813 "/>
    <polygon style="fill: none; fill-opacity:0; stroke-width: 3; stroke: #714b1d" points="270.438,261.813 265.438,251.813 270.438,254.313 275.438,251.813 "/>
  </g>
  <text font-size="12.8" style="fill: #000000;text-anchor:start;font-family:sans-serif;font-style:normal;font-weight:normal" x="276.5" y="529">
    <tspan x="276.5" y="529"></tspan>
  </text>
  <text font-size="12.8" style="fill: #000000;text-anchor:start;font-family:sans-serif;font-style:normal;font-weight:normal" x="141.5" y="122.9">
    <tspan x="141.5" y="122.9"></tspan>
  </text>
  <g>
    <rect style="fill: #e5e7d5" x="202.313" y="265.167" width="136.25" height="70"/>
    <path style="fill: #e5e7d5" d="M 202.313,265.167 A 4,4 0 0 0 198.313,269.167 L 202.313,269.167 z"/>
    <path style="fill: #e5e7d5" d="M 342.563,269.167 A 4,4 0 0 0 338.563,265.167 L 338.563,269.167 z"/>
    <rect style="fill: #e5e7d5" x="198.313" y="269.167" width="144.25" height="62"/>
    <path style="fill: #e5e7d5" d="M 198.313,331.167 A 4,4 0 0 0 202.313,335.167 L 202.313,331.167 z"/>
    <path style="fill: #e5e7d5" d="M 338.563,335.167 A 4,4 0 0 0 342.563,331.167 L 338.563,331.167 z"/>
    <line style="fill: none; fill-opacity:0; stroke-width: 2; stroke: #714b1d" x1="202.313" y1="265.167" x2="338.563" y2="265.167"/>
    <line style="fill: none; fill-opacity:0; stroke-width: 2; stroke: #714b1d" x1="202.313" y1="335.167" x2="338.563" y2="335.167"/>
    <path style="fill: none; fill-opacity:0; stroke-width: 2; stroke: #714b1d" d="M 202.313,265.167 A 4,4 0 0 0 198.313,269.167"/>
    <path style="fill: none; fill-opacity:0; stroke-width: 2; stroke: #714b1d" d="M 342.563,269.167 A 4,4 0 0 0 338.563,265.167"/>
    <line style="fill: none; fill-opacity:0; stroke-width: 2; stroke: #714b1d" x1="198.313" y1="269.167" x2="198.313" y2="331.167"/>
    <line style="fill: none; fill-opacity:0; stroke-width: 2; stroke: #714b1d" x1="342.563" y1="269.167" x2="342.563" y2="331.167"/>
    <path style="fill: none; fill-opacity:0; stroke-width: 2; stroke: #714b1d" d="M 198.313,331.167 A 4,4 0 0 0 202.313,335.167"/>
    <path style="fill: none; fill-opacity:0; stroke-width: 2; stroke: #714b1d" d="M 338.563,335.167 A 4,4 0 0 0 342.563,331.167"/>
    <text font-size="12.8" style="fill: #714b1d;text-anchor:middle;font-family:Arial;font-style:normal;font-weight:700" x="270.438" y="287.767">
      <tspan x="270.438" y="287.767">Project</tspan>
      <tspan x="270.438" y="303.767">Question or</tspan>
      <tspan x="270.438" y="319.767">Hypothesis</tspan>
    </text>
  </g>
  <g>
    <rect style="fill: #e5e7d5" x="202.313" y="379.333" width="136.25" height="70"/>
    <path style="fill: #e5e7d5" d="M 202.313,379.333 A 4,4 0 0 0 198.313,383.333 L 202.313,383.333 z"/>
    <path style="fill: #e5e7d5" d="M 342.563,383.333 A 4,4 0 0 0 338.563,379.333 L 338.563,383.333 z"/>
    <rect style="fill: #e5e7d5" x="198.313" y="383.333" width="144.25" height="62"/>
    <path style="fill: #e5e7d5" d="M 198.313,445.333 A 4,4 0 0 0 202.313,449.333 L 202.313,445.333 z"/>
    <path style="fill: #e5e7d5" d="M 338.563,449.333 A 4,4 0 0 0 342.563,445.333 L 338.563,445.333 z"/>
    <line style="fill: none; fill-opacity:0; stroke-width: 2; stroke: #714b1d" x1="202.313" y1="379.333" x2="338.563" y2="379.333"/>
    <line style="fill: none; fill-opacity:0; stroke-width: 2; stroke: #714b1d" x1="202.313" y1="449.333" x2="338.563" y2="449.333"/>
    <path style="fill: none; fill-opacity:0; stroke-width: 2; stroke: #714b1d" d="M 202.313,379.333 A 4,4 0 0 0 198.313,383.333"/>
    <path style="fill: none; fill-opacity:0; stroke-width: 2; stroke: #714b1d" d="M 342.563,383.333 A 4,4 0 0 0 338.563,379.333"/>
    <line style="fill: none; fill-opacity:0; stroke-width: 2; stroke: #714b1d" x1="198.313" y1="383.333" x2="198.313" y2="445.333"/>
    <line style="fill: none; fill-opacity:0; stroke-width: 2; stroke: #714b1d" x1="342.563" y1="383.333" x2="342.563" y2="445.333"/>
    <path style="fill: none; fill-opacity:0; stroke-width: 2; stroke: #714b1d" d="M 198.313,445.333 A 4,4 0 0 0 202.313,449.333"/>
    <path style="fill: none; fill-opacity:0; stroke-width: 2; stroke: #714b1d" d="M 338.563,449.333 A 4,4 0 0 0 342.563,445.333"/>
    <text font-size="12.8" style="fill: #714b1d;text-anchor:middle;font-family:Arial;font-style:normal;font-weight:700" x="270.438" y="409.933">
      <tspan x="270.438" y="409.933">Analytical</tspan>
      <tspan x="270.438" y="425.933">Approach</tspan>
    </text>
  </g>
  <g>
    <rect style="fill: #e5e7d5" x="202.313" y="493.5" width="136.25" height="70"/>
    <path style="fill: #e5e7d5" d="M 202.313,493.5 A 4,4 0 0 0 198.313,497.5 L 202.313,497.5 z"/>
    <path style="fill: #e5e7d5" d="M 342.563,497.5 A 4,4 0 0 0 338.563,493.5 L 338.563,497.5 z"/>
    <rect style="fill: #e5e7d5" x="198.313" y="497.5" width="144.25" height="62"/>
    <path style="fill: #e5e7d5" d="M 198.313,559.5 A 4,4 0 0 0 202.313,563.5 L 202.313,559.5 z"/>
    <path style="fill: #e5e7d5" d="M 338.563,563.5 A 4,4 0 0 0 342.563,559.5 L 338.563,559.5 z"/>
    <line style="fill: none; fill-opacity:0; stroke-width: 2; stroke: #714b1d" x1="202.313" y1="493.5" x2="338.563" y2="493.5"/>
    <line style="fill: none; fill-opacity:0; stroke-width: 2; stroke: #714b1d" x1="202.313" y1="563.5" x2="338.563" y2="563.5"/>
    <path style="fill: none; fill-opacity:0; stroke-width: 2; stroke: #714b1d" d="M 202.313,493.5 A 4,4 0 0 0 198.313,497.5"/>
    <path style="fill: none; fill-opacity:0; stroke-width: 2; stroke: #714b1d" d="M 342.563,497.5 A 4,4 0 0 0 338.563,493.5"/>
    <line style="fill: none; fill-opacity:0; stroke-width: 2; stroke: #714b1d" x1="198.313" y1="497.5" x2="198.313" y2="559.5"/>
    <line style="fill: none; fill-opacity:0; stroke-width: 2; stroke: #714b1d" x1="342.563" y1="497.5" x2="342.563" y2="559.5"/>
    <path style="fill: none; fill-opacity:0; stroke-width: 2; stroke: #714b1d" d="M 198.313,559.5 A 4,4 0 0 0 202.313,563.5"/>
    <path style="fill: none; fill-opacity:0; stroke-width: 2; stroke: #714b1d" d="M 338.563,563.5 A 4,4 0 0 0 342.563,559.5"/>
    <text font-size="12.8" style="fill: #714b1d;text-anchor:middle;font-family:Arial;font-style:normal;font-weight:700" x="270.438" y="524.1">
      <tspan x="270.438" y="524.1">Data</tspan>
      <tspan x="270.438" y="540.1">Question</tspan>
    </text>
  </g>
  <g>
    <rect style="fill: #e5e7d5" x="202.313" y="607.667" width="136.25" height="70"/>
    <path style="fill: #e5e7d5" d="M 202.313,607.667 A 4,4 0 0 0 198.313,611.667 L 202.313,611.667 z"/>
    <path style="fill: #e5e7d5" d="M 342.563,611.667 A 4,4 0 0 0 338.563,607.667 L 338.563,611.667 z"/>
    <rect style="fill: #e5e7d5" x="198.313" y="611.667" width="144.25" height="62"/>
    <path style="fill: #e5e7d5" d="M 198.313,673.667 A 4,4 0 0 0 202.313,677.667 L 202.313,673.667 z"/>
    <path style="fill: #e5e7d5" d="M 338.563,677.667 A 4,4 0 0 0 342.563,673.667 L 338.563,673.667 z"/>
    <line style="fill: none; fill-opacity:0; stroke-width: 2; stroke: #714b1d" x1="202.313" y1="607.667" x2="338.563" y2="607.667"/>
    <line style="fill: none; fill-opacity:0; stroke-width: 2; stroke: #714b1d" x1="202.313" y1="677.667" x2="338.563" y2="677.667"/>
    <path style="fill: none; fill-opacity:0; stroke-width: 2; stroke: #714b1d" d="M 202.313,607.667 A 4,4 0 0 0 198.313,611.667"/>
    <path style="fill: none; fill-opacity:0; stroke-width: 2; stroke: #714b1d" d="M 342.563,611.667 A 4,4 0 0 0 338.563,607.667"/>
    <line style="fill: none; fill-opacity:0; stroke-width: 2; stroke: #714b1d" x1="198.313" y1="611.667" x2="198.313" y2="673.667"/>
    <line style="fill: none; fill-opacity:0; stroke-width: 2; stroke: #714b1d" x1="342.563" y1="611.667" x2="342.563" y2="673.667"/>
    <path style="fill: none; fill-opacity:0; stroke-width: 2; stroke: #714b1d" d="M 198.313,673.667 A 4,4 0 0 0 202.313,677.667"/>
    <path style="fill: none; fill-opacity:0; stroke-width: 2; stroke: #714b1d" d="M 338.563,677.667 A 4,4 0 0 0 342.563,673.667"/>
    <text font-size="12.8" style="fill: #714b1d;text-anchor:middle;font-family:Arial;font-style:normal;font-weight:700" x="270.438" y="638.267">
      <tspan x="270.438" y="638.267">Data</tspan>
      <tspan x="270.438" y="654.267">Answer</tspan>
    </text>
  </g>
  <g>
    <rect style="fill: #e5e7d5" x="202.313" y="721.833" width="136.25" height="70"/>
    <path style="fill: #e5e7d5" d="M 202.313,721.833 A 4,4 0 0 0 198.313,725.833 L 202.313,725.833 z"/>
    <path style="fill: #e5e7d5" d="M 342.563,725.833 A 4,4 0 0 0 338.563,721.833 L 338.563,725.833 z"/>
    <rect style="fill: #e5e7d5" x="198.313" y="725.833" width="144.25" height="62"/>
    <path style="fill: #e5e7d5" d="M 198.313,787.833 A 4,4 0 0 0 202.313,791.833 L 202.313,787.833 z"/>
    <path style="fill: #e5e7d5" d="M 338.563,791.833 A 4,4 0 0 0 342.563,787.833 L 338.563,787.833 z"/>
    <line style="fill: none; fill-opacity:0; stroke-width: 2; stroke: #714b1d" x1="202.313" y1="721.833" x2="338.563" y2="721.833"/>
    <line style="fill: none; fill-opacity:0; stroke-width: 2; stroke: #714b1d" x1="202.313" y1="791.833" x2="338.563" y2="791.833"/>
    <path style="fill: none; fill-opacity:0; stroke-width: 2; stroke: #714b1d" d="M 202.313,721.833 A 4,4 0 0 0 198.313,725.833"/>
    <path style="fill: none; fill-opacity:0; stroke-width: 2; stroke: #714b1d" d="M 342.563,725.833 A 4,4 0 0 0 338.563,721.833"/>
    <line style="fill: none; fill-opacity:0; stroke-width: 2; stroke: #714b1d" x1="198.313" y1="725.833" x2="198.313" y2="787.833"/>
    <line style="fill: none; fill-opacity:0; stroke-width: 2; stroke: #714b1d" x1="342.563" y1="725.833" x2="342.563" y2="787.833"/>
    <path style="fill: none; fill-opacity:0; stroke-width: 2; stroke: #714b1d" d="M 198.313,787.833 A 4,4 0 0 0 202.313,791.833"/>
    <path style="fill: none; fill-opacity:0; stroke-width: 2; stroke: #714b1d" d="M 338.563,791.833 A 4,4 0 0 0 342.563,787.833"/>
    <text font-size="12.8" style="fill: #714b1d;text-anchor:middle;font-family:Arial;font-style:normal;font-weight:700" x="270.438" y="752.433">
      <tspan x="270.438" y="752.433">Analytical</tspan>
      <tspan x="270.438" y="768.433">Answer</tspan>
    </text>
  </g>
  <g>
    <line style="fill: none; fill-opacity:0; stroke-width: 3; stroke: #714b1d" x1="270.438" y1="335.167" x2="270.438" y2="368.479"/>
    <polygon style="fill: #714b1d" points="270.438,375.979 265.438,365.979 270.438,368.479 275.438,365.979 "/>
    <polygon style="fill: none; fill-opacity:0; stroke-width: 3; stroke: #714b1d" points="270.438,375.979 265.438,365.979 270.438,368.479 275.438,365.979 "/>
  </g>
  <g>
    <line style="fill: none; fill-opacity:0; stroke-width: 3; stroke: #714b1d" x1="270.438" y1="449.333" x2="270.438" y2="482.646"/>
    <polygon style="fill: #714b1d" points="270.438,490.146 265.438,480.146 270.438,482.646 275.438,480.146 "/>
    <polygon style="fill: none; fill-opacity:0; stroke-width: 3; stroke: #714b1d" points="270.438,490.146 265.438,480.146 270.438,482.646 275.438,480.146 "/>
  </g>
  <g>
    <line style="fill: none; fill-opacity:0; stroke-width: 3; stroke: #714b1d" x1="270.438" y1="563.5" x2="270.438" y2="596.813"/>
    <polygon style="fill: #714b1d" points="270.438,604.313 265.438,594.313 270.438,596.813 275.438,594.313 "/>
    <polygon style="fill: none; fill-opacity:0; stroke-width: 3; stroke: #714b1d" points="270.438,604.313 265.438,594.313 270.438,596.813 275.438,594.313 "/>
  </g>
  <g>
    <line style="fill: none; fill-opacity:0; stroke-width: 3; stroke: #714b1d" x1="270.438" y1="677.667" x2="270.438" y2="710.979"/>
    <polygon style="fill: #714b1d" points="270.438,718.479 265.438,708.479 270.438,710.979 275.438,708.479 "/>
    <polygon style="fill: none; fill-opacity:0; stroke-width: 3; stroke: #714b1d" points="270.438,718.479 265.438,708.479 270.438,710.979 275.438,708.479 "/>
  </g>
  <g>
    <rect style="fill: #e5e7d5" x="202.313" y="836" width="136.25" height="70"/>
    <path style="fill: #e5e7d5" d="M 202.313,836 A 4,4 0 0 0 198.313,840 L 202.313,840 z"/>
    <path style="fill: #e5e7d5" d="M 342.563,840 A 4,4 0 0 0 338.563,836 L 338.563,840 z"/>
    <rect style="fill: #e5e7d5" x="198.313" y="840" width="144.25" height="62"/>
    <path style="fill: #e5e7d5" d="M 198.313,902 A 4,4 0 0 0 202.313,906 L 202.313,902 z"/>
    <path style="fill: #e5e7d5" d="M 338.563,906 A 4,4 0 0 0 342.563,902 L 338.563,902 z"/>
    <line style="fill: none; fill-opacity:0; stroke-width: 2; stroke: #714b1d" x1="202.313" y1="836" x2="338.563" y2="836"/>
    <line style="fill: none; fill-opacity:0; stroke-width: 2; stroke: #714b1d" x1="202.313" y1="906" x2="338.563" y2="906"/>
    <path style="fill: none; fill-opacity:0; stroke-width: 2; stroke: #714b1d" d="M 202.313,836 A 4,4 0 0 0 198.313,840"/>
    <path style="fill: none; fill-opacity:0; stroke-width: 2; stroke: #714b1d" d="M 342.563,840 A 4,4 0 0 0 338.563,836"/>
    <line style="fill: none; fill-opacity:0; stroke-width: 2; stroke: #714b1d" x1="198.313" y1="840" x2="198.313" y2="902"/>
    <line style="fill: none; fill-opacity:0; stroke-width: 2; stroke: #714b1d" x1="342.563" y1="840" x2="342.563" y2="902"/>
    <path style="fill: none; fill-opacity:0; stroke-width: 2; stroke: #714b1d" d="M 198.313,902 A 4,4 0 0 0 202.313,906"/>
    <path style="fill: none; fill-opacity:0; stroke-width: 2; stroke: #714b1d" d="M 338.563,906 A 4,4 0 0 0 342.563,902"/>
    <text font-size="12.8" style="fill: #714b1d;text-anchor:middle;font-family:Arial;font-style:normal;font-weight:700" x="270.438" y="866.6">
      <tspan x="270.438" y="866.6">Project</tspan>
      <tspan x="270.438" y="882.6">Answer</tspan>
    </text>
  </g>
  <g>
    <line style="fill: none; fill-opacity:0; stroke-width: 3; stroke: #714b1d" x1="270.438" y1="791.833" x2="270.438" y2="825.146"/>
    <polygon style="fill: #714b1d" points="270.438,832.646 265.438,822.646 270.438,825.146 275.438,822.646 "/>
    <polygon style="fill: none; fill-opacity:0; stroke-width: 3; stroke: #714b1d" points="270.438,832.646 265.438,822.646 270.438,825.146 275.438,822.646 "/>
  </g>
</svg>
